<?xml version="1.0" standalone="no"?>
<!DOCTYPE svg PUBLIC "-//W3C//DTD SVG 1.1//EN" "http://www.w3.org/Graphics/SVG/1.1/DTD/svg11.dtd" >
<svg xmlns="http://www.w3.org/2000/svg">
<metadata>
This is a custom SVG font generated by IcoMoon.
<iconset grid="16"></iconset>
</metadata>
<defs>
<font id="icomoon" horiz-adv-x="512" >
<font-face units-per-em="512" ascent="480" descent="-32" />
<missing-glyph horiz-adv-x="512" />
<glyph class="hidden" unicode="&#xf000;" d="M0,480L 512 -32L0 -32 z" horiz-adv-x="0" />
<glyph unicode="&#xe002;" d="M 476.16,358.548 450.304,384.409 183.605,115.293 61.731,236.484 35.895,210.588 183.795,63.557 209.691,89.398 209.566,89.523 476.16,358.548 z"  />
<glyph unicode="&#xe003;" d="M 431.201,372.181 404.167,399.215 256.006,251.017 107.761,399.215 80.749,372.181 228.931,224.004 80.749,75.822 107.761,48.747 256.006,196.991 404.167,48.747 431.201,75.822 283.019,224.004 431.201,372.181 z"  />
<glyph unicode="&#xe004;" d="M 98.125,122.855 256.001,259.132 413.877,122.855 446.507,160.648 256.001,325.094 65.481,160.648 98.125,122.855 z"  />
<glyph unicode="&#xe005;" d="M 413.873,325.144 255.998,188.802 98.122,325.144 65.493,287.336 255.998,122.907 446.528,287.336 413.873,325.144 z"  />
<glyph unicode="&#xe006;" d="M 268.317,423.513 233.782,388.948 374.291,248.435 44.053,248.435 44.053,199.565 374.291,199.565 233.782,59.038 268.317,24.487 467.895,223.94 268.317,423.513 z"  />
<glyph unicode="&#xe007;" d="M 150.374,388.864 292.741,223.998 150.374,59.133 189.85,25.067 361.575,223.998 189.85,422.95 150.374,388.864 z"  />
<glyph unicode="&#xe008;" d="M 361.625,59.137 219.321,223.942 361.625,388.868 322.164,422.933 150.425,223.942 322.164,25.041 361.625,59.137 z"  />
<glyph unicode="&#xe009;" d="M 321.733,30.728 C 411.344,59.037 469.596,144.126 463.445,237.587 L 416.436,234.482 C 421.156,162.757 376.413,97.425 307.613,75.669 C 271.386,64.243 232.366,66.628 198.021,81.76 L 248.821,136.172 L 107.417,131.392 L 119.405-2.176 L 164.55,46.044 C 194.424,29.967 227.522,21.373 260.839,21.373 C 281.302,21.373 301.901,24.508 321.733,30.728 Z M 323.477,367.132 L 272.568,312.795 L 414.077,317.514 L 402.092,451.093 L 357.017,402.962 C 308.801,428.985 252.055,434.698 199.641,418.18 C 110.149,389.925 51.898,304.906 57.984,211.315 L 104.933,214.421 C 100.338,286.275 144.991,351.606 213.796,373.217 C 250.067,384.704 289.028,382.348 323.477,367.132 Z"  />
<glyph unicode="&#xe010;" d="M 274.065,341.51 C 271.74,343.299 269.038,344.572 265.933,345.287 262.858,345.995 259.559,346.361 256.072,346.361 252.567,346.361 249.249,345.995 246.11,345.287 242.972,344.572 240.245,343.299 237.919,341.51 235.601,339.721 233.776,337.337 232.425,334.411 231.097,331.472 230.419,327.784 230.419,323.358 230.419,319.036 231.097,315.379 232.425,312.411 233.776,309.407 235.601,307.005 237.919,305.212 240.245,303.429 242.972,302.112 246.11,301.357 249.249,300.585 252.567,300.195 256.072,300.195 259.559,300.195 262.858,300.585 265.933,301.357 269.038,302.112 271.74,303.429 274.065,305.212 276.373,307.005 278.237,309.407 279.607,312.411 280.988,315.379 281.696,319.036 281.696,323.358 281.696,327.784 280.988,331.472 279.607,334.411 278.237,337.337 276.373,339.721 274.065,341.51M 255.99,26.307 C 147.033,26.307 58.37,114.973 58.37,224.002 58.37,332.959 147.033,421.697 255.99,421.697 365.017,421.697 453.685,332.959 453.685,224.002 453.685,114.973 365.017,26.307 255.99,26.307 M 255.99,455.040 C 128.595,455.040 25.027,351.395 25.027,224.002 25.027,96.586 128.595-7.049 255.99-7.049 383.383-7.049 487.028,96.586 487.028,224.002 487.028,351.395 383.383,455.040 255.99,455.040M 232.461,106.121 279.517,106.121 279.517,278.737 232.461,278.737 232.461,106.121 z"  />
<glyph unicode="&#xe011;" d="M 187.629,45.395 C 187.629,36.233 188.999,28.399 191.758,21.891 C 194.499,15.375 198.316,9.978 203.194,5.707 C 208.079,1.436 213.832-1.664 220.447-3.608 C 227.057-5.535 234.127-6.502 241.659-6.502 C 248.786-6.502 255.556-5.535 261.982-3.608 C 268.404-1.664 274.015,1.436 278.887,5.707 C 283.761,9.978 287.67,15.375 290.483,21.891 C 293.359,28.399 294.764,36.233 294.764,45.395 C 294.764,54.956 293.359,63.050 290.483,69.664 C 287.67,76.279 283.761,81.62 278.887,85.694 C 274.015,89.77 268.404,92.713 261.982,94.543 C 255.556,96.38 248.786,97.296 241.659,97.296 C 234.127,97.296 227.057,96.38 220.447,94.543 C 213.832,92.713 208.079,89.77 203.194,85.694 C 198.316,81.62 194.499,76.279 191.758,69.664 C 188.999,63.050 187.629,54.956 187.629,45.395 Z M 197.7,149.8 L 278.297,149.8 L 278.297,168.111 C 278.297,174.608 278.887,180.291 279.997,185.085 C 281.103,189.813 283.171,194.467 286.271,198.972 C 289.301,203.402 293.507,208.199 298.899,213.148 C 304.286,218.169 311.299,224 319.792,230.715 C 331.015,239.653 340.83,248.146 349.254,256.191 C 357.741,264.241 364.752,272.581 370.363,281.223 C 375.981,289.859 380.187,299.233 382.993,309.351 C 385.875,319.393 387.275,330.839 387.275,343.679 C 387.275,361.181 384.175,376.757 377.973,390.419 C 371.771,404.005 362.839,415.6 351.244,425.197 C 339.651,434.719 325.55,442.025 308.793,447.046 C 292.1,451.995 273.425,454.507 252.655,454.507 C 241.659,454.507 230.469,453.474 219.065,451.407 C 207.67,449.409 196.424,446.61 185.332,443.066 C 174.245,439.516 163.561,435.381 153.283,430.809 C 142.998,426.226 133.483,421.429 124.73,416.337 L 155.876,348.849 C 173.171,357.413 189.927,364.654 206.093,370.561 C 222.278,376.467 237.388,379.421 251.434,379.421 C 267.518,379.421 279.478,375.653 287.305,368.123 C 295.131,360.591 299.041,350.993 299.041,339.404 C 299.041,331.872 298.233,325.228 296.607,319.539 C 294.984,313.857 292.326,308.388 288.705,303.221 C 285.012,298.051 280.217,292.813 274.311,287.497 C 268.404,282.181 261.203,276.203 252.655,269.481 C 242.886,261.731 234.535,254.271 227.619,247.036 C 220.7,239.799 215.060,232.416 210.672,224.737 C 206.294,217.13 203.045,209.085 200.913,200.669 C 198.77,192.173 197.7,182.8 197.7,172.388 L 197.7,149.8 L 197.7,149.8 Z"  />
<glyph unicode="&#xe012;" d="M 97.727,196.215 C 46.377,247.607 46.377,330.879 97.727,382.277 149.114,433.669 232.321,433.594 283.713,382.277 335.111,330.879 335.111,247.637 283.713,196.215 232.321,144.863 149.079,144.863 97.727,196.215 M 485.027,62.269 397.127,150.202 C 389.395,157.922 375.372,157.194 361.349,149.879 L 322.967,188.223 C 372.984,253.518 368.212,347.292 308.511,406.999 243.449,472.055 138.010,472.055 72.954,406.999 7.949,341.941 7.949,236.51 72.954,171.454 132.718,111.711 226.465,107.010 291.741,156.991 L 330.121,118.651 C 322.823,104.559 322.026,90.603 329.763,82.873 L 417.731-5.102 C 428.863-16.158 452.937-10.092 471.511,8.489 490.086,27.067 496.158,51.137 485.027,62.269"  />
<glyph unicode="&#xe013;" d="M 479.19,87.58 404.815,87.58 404.815,62.788 479.19,62.788 479.19,87.58 z M 293.187,87.58 32.814,87.58 32.814,62.788 293.187,62.788 293.187,87.58 z M 479.19,236.396 218.812,236.396 218.812,211.603 479.19,211.603 479.19,236.396 z M 107.185,236.396 32.814,236.396 32.814,211.603 107.185,211.603 107.185,236.396 z M 479.19,385.211 404.815,385.211 404.815,360.42 479.19,360.42 479.19,385.211 z M 293.187,385.211 32.814,385.211 32.814,360.42 293.187,360.42 293.187,385.211 z M 343.515,453.389 C 326.101,453.389 311.781,439.129 311.781,421.65 L 311.781,323.91 C 311.781,306.432 326.101,292.178 343.515,292.178 L 354.483,292.178 C 371.962,292.178 386.221,306.432 386.221,323.91 L 386.221,421.65 C 386.221,439.129 371.962,453.389 354.483,453.389 L 343.515,453.389 z M 343.515,155.822 C 326.101,155.822 311.781,141.567 311.781,124.024 L 311.781,26.344 C 311.781,8.866 326.101-5.385 343.515-5.385 L 354.483-5.385 C 371.837-5.385 386.221,8.866 386.221,26.344 L 386.221,124.024 C 386.221,141.567 371.837,155.822 354.483,155.822 L 343.515,155.822 z M 157.576,304.573 C 140.098,304.573 125.779,290.318 125.779,272.84 L 125.779,175.159 C 125.779,157.681 140.098,143.427 157.576,143.427 L 168.484,143.427 C 185.898,143.427 200.218,157.681 200.218,175.159 L 200.218,272.84 C 200.218,290.318 185.898,304.573 168.484,304.573 L 157.576,304.573 z"  />
<glyph unicode="&#xe020;" d="M 446.488,383.779 C 406.167,383.779 373.093,385.556 351.483,391.588 315.32,407.226 269.052,416.209 235.351,421.046 171.347,430.183 144.201,426.673 124.307,421.422 L 124.226,421.077 C 113.745,418.011 106.109,410.602 102.561,397.832 99.167,385.809 101.092,378.078 107.959,373.618 L 102.018,372.834 C 84.749,369.627 72.412,361.107 70.407,340.885 69.019,326.417 73.639,317.213 82.899,313.359 66.162,313.068 52.899,305.123 50.198,283.371 47.735,263.481 59.765,250.525 76.342,249.829 61.381,247.749 50.821,237.644 50.821,218.446 50.821,197.311 64.621,184.129 85.053,182.356 L 85.362,182.356 C 110.043,179.039 150.451,178.033 174.505,176.491 179.365,159.605 177.67,153.511 171.119,138.475 148.213,113.801 136.183,89.124 139.803,54.884 141.118,42.392 152.684,22.498 161.395,21.189 176.589,18.875 181.142,31.060 191.939,49.104 203.352,68.147 208.904,72.93 222.161,95.755 235.351,118.581 237.201,123.979 285.319,157.679 329.041,188.293 323.186,199.779 373.712,209.347 382.799,211.117 409.781,215.743 446.488,215.743 455.495,215.743 462.805,235.566 462.805,299.723 462.805,363.952 455.495,383.779 446.488,383.779"  />
<glyph unicode="&#xe021;" d="M 255.988,358.187 C 273.546,397.725 304.29,436.026 348.233,436.026 373.847,436.026 397.481,423.505 419.131,398.535 439.715,374.853 450.085,351.038 450.085,327.076 450.085,291.275 440.253,253.815 420.656,214.559 403.732,180.782 379.411,145.183 347.696,107.675 323.699,79.315 292.802,47.065 254.988,10.935 222.201,42.345 192.835,73.595 166.792,104.626 135.077,142.824 110.377,178.502 92.845,211.583 72.261,250.772 61.971,285.867 61.971,316.927 61.971,346.659 71.039,373.513 89.337,397.481 109.237,423.864 133.555,437.013 162.297,437.013 207.508,437.013 238.759,398.382 255.988,358.187"  />
<glyph unicode="&#xe022;" d="M 435.656,198.231 C 450.608,200.315 461.19,210.388 461.19,229.624 461.19,250.703 447.364,263.906 426.92,265.706 L 426.588,265.683 C 401.949,269.025 361.542,270.024 337.497,271.561 332.635,288.371 334.332,294.54 340.889,309.58 363.787,334.255 375.799,358.85 372.203,393.161 370.895,405.653 359.345,425.474 350.524,426.862 335.411,429.176 330.864,416.912 320.069,398.874 308.65,379.898 303.104,375.117 289.835,352.299 276.653,329.395 274.801,323.995 226.685,290.376 182.959,259.765 188.745,248.272 138.239,238.669 129.215,236.915 102.227,232.333 65.522,232.333 56.502,232.333 49.173,212.5 49.173,148.275 49.173,84.099 56.502,64.285 65.522,64.285 105.847,64.285 138.931,62.514 160.523,56.421 196.611,40.843 242.958,31.823 276.653,26.963 340.58,17.864 367.742,21.336 387.668,26.654 L 387.737,26.963 C 398.228,29.967 405.854,37.451 409.439,50.177 412.813,62.201 410.856,69.991 404.039,74.383 L 409.961,75.161 C 427.205,78.395 439.615,86.957 441.559,107.158 442.96,121.6 438.394,130.823 429.134,134.684 445.865,134.956 459.091,142.92 461.788,164.685 464.273,184.585 452.182,197.526 435.656,198.231"  />
<glyph unicode="&#xe023;" d="M 377.92,32.111 264.99,99.866 256.004,105.286 256.004,407.391 307.512,286.218 311.638,276.554 322.124,275.629 453.247,264.063 353.979,177.595 346.042,170.639 348.401,160.428 377.92,32.111 z M 495.893,277.908 323.67,293.106 256.004,452.194 188.308,293.106 16.051,277.908 146.461,164.366 107.689-4.16 256.004,84.79 404.271-4.16 365.504,164.366 495.893,277.908 z"  />
<glyph unicode="&#xe024;" d="M 256.004,452.885 L 188.095,293.263 L 15.305,278.067 L 146.144,164.152 L 107.268-4.889 L 256.004,84.367 L 404.741-4.889 L 365.865,164.152 L 496.64,278.067 L 323.914,293.263 L 256.004,452.885 L 256.004,452.885 Z"  />
<glyph unicode="&#xe025;" d="M 255.996,452.196 188.3,293.109 16.107,277.91 146.516,164.305 107.681-4.196 255.996,84.734 404.311-4.196 365.54,164.305 495.945,277.91 323.692,293.109 255.996,452.196 z M 255.996,407.355 307.539,286.221 311.659,276.492 322.155,275.572 453.299,264.002 354.030,177.538 346.093,170.641 348.432,160.366 377.912,32.113 265.025,99.809 255.996,105.225 246.967,99.809 134.085,32.113 163.56,160.366 165.958,170.641 158.021,177.538 58.693,264.002 189.841,275.572 200.357,276.492 204.479,286.221 255.996,407.355 z"  />
<glyph unicode="&#xe030;" d="M 442.046,206.455 C 438.285,257.212 396.002,297.269 344.271,297.269 324.322,297.269 305.753,291.25 290.16,280.951 278.991,324.54 239.603,356.821 192.456,356.821 136.681,356.821 91.488,311.631 91.488,255.872 91.488,251.757 91.855,247.736 92.289,243.732 91.71,243.762 91.123,243.825 90.549,243.825 48.404,243.825 14.238,209.642 14.238,167.484 14.238,126.593 46.373,93.303 86.777,91.349 L 86.777,91.127 437.734,91.127 437.734,91.419 C 438.518,91.349 439.25,91.127 440.032,91.127 471.946,91.127 497.792,117.025 497.792,148.923 497.792,180.142 473.015,205.395 442.046,206.455"  />
<glyph unicode="&#xe031;" d="M 420.053,281.655 91.947,281.655 58.402,172.267 46.080,182.878 76.053,297.536 420.053,297.536 420.053,323.989 196.638,323.989 163.682,385.118 24.909,385.118 24.909,62.878 420.053,62.878 487.091,281.655 420.053,281.655 z"  />
<glyph unicode="&#xe032;" d="M 476-10.667 36-10.667 C 27.862-10.667 21.333-4.138 21.333,4 L 21.333,414.667 C 21.333,422.809 27.862,429.333 36,429.333 L 476,429.333 C 484.132,429.333 490.667,422.809 490.667,414.667 L 490.667,4 C 490.667-4.138 484.132-10.667 476-10.667 M 50.667,18.667 461.333,18.667 461.333,400 50.667,400 50.667,18.667 zM 124,458.667 L 124,370.667 L 182.667,370.667 L 182.667,458.667 L 124,458.667 L 124,458.667 ZM 329.333,458.667 L 329.333,370.667 L 388,370.667 L 388,458.667 L 329.333,458.667 L 329.333,458.667 ZM 182.667,312 L 182.667,253.333 L 241.333,253.333 L 241.333,312 L 182.667,312 L 182.667,312 ZM 270.667,312 L 270.667,253.333 L 329.333,253.333 L 329.333,312 L 270.667,312 L 270.667,312 ZM 358.667,312 L 358.667,253.333 L 417.333,253.333 L 417.333,312 L 358.667,312 L 358.667,312 ZM 182.667,224 L 182.667,165.333 L 241.333,165.333 L 241.333,224 L 182.667,224 L 182.667,224 ZM 94.667,224 L 94.667,165.333 L 153.333,165.333 L 153.333,224 L 94.667,224 L 94.667,224 ZM 256,238.667 L 256,150.667 L 344,150.667 L 344,238.667 L 256,238.667 L 256,238.667 ZM 358.667,224 L 358.667,165.333 L 417.333,165.333 L 417.333,224 L 358.667,224 L 358.667,224 ZM 182.667,136 L 182.667,77.333 L 241.333,77.333 L 241.333,136 L 182.667,136 L 182.667,136 ZM 94.667,136 L 94.667,77.333 L 153.333,77.333 L 153.333,136 L 94.667,136 L 94.667,136 ZM 270.667,136 L 270.667,77.333 L 329.333,77.333 L 329.333,136 L 270.667,136 L 270.667,136 Z"  />
<glyph unicode="&#xe033;" d="M 196.547,80.812 173.812,103.547 333.787,263.552 356.506,240.833 196.547,80.812 z M 123.326,154.033 284.287,315.059 307.007,292.275 146.031,131.298 123.326,154.033 z M 107.616,43.639 C 96.666,43.639 87.84,52.476 87.84,63.395 87.84,74.294 96.666,83.14 107.616,83.14 118.51,83.14 127.332,74.294 127.332,63.395 127.332,52.476 118.51,43.639 107.616,43.639 M 287.226,412.622 52.859,180.132 52.484,7.467 225.11,7.907 459.516,240.396 287.226,412.622 zM 193.543,440.533 88.842,247.716 256.877,410.419 193.543,440.533 z"  />
<glyph unicode="&#xe034;" d="M 372.741,108.010 372.741,190.732 346.871,190.732 346.871,108.010 265.389,108.010 265.389,82.122 346.871,82.122 346.871-0.585 372.741-0.585 372.741,82.122 454.283,82.122 454.283,108.010 372.741,108.010 zM 164.635,181.587 147.758,198.459 266.508,317.235 283.367,300.322 164.635,181.587 z M 110.271,235.941 229.753,355.423 246.611,338.57 127.148,219.054 110.271,235.941 z M 98.643,153.991 C 90.498,153.991 83.965,160.559 83.965,168.649 83.965,176.745 90.498,183.308 98.643,183.308 106.724,183.308 113.281,176.745 113.281,168.649 113.281,160.559 106.724,153.991 98.643,153.991 M 231.932,427.819 57.967,255.287 57.717,127.152 185.842,127.456 359.803,300.008 231.932,427.819 zM 162.396,448.533 84.711,305.421 209.403,426.177 162.396,448.533 z"  />
<glyph unicode="&#xe035;" d="M 20.48,324.231 491.52,324.231 491.52,370.645 20.48,370.645 20.48,324.231 zM 20.48,200.794 348.396,200.794 348.396,247.206 20.48,247.206 20.48,200.794 zM 20.48,77.355 192.552,77.355 192.552,123.769 20.48,123.769 20.48,77.355 z"  />
<glyph unicode="&#xe036;" d="M 221.348,255.275 L 221.348,419.821 L 56.802,419.821 L 56.802,255.275 L 221.348,255.275 L 221.348,255.275 ZM 455.202,255.275 L 455.202,419.821 L 290.65,419.821 L 290.65,255.275 L 455.202,255.275 L 455.202,255.275 ZM 221.348,28.179 L 221.348,192.725 L 56.802,192.725 L 56.802,28.179 L 221.348,28.179 L 221.348,28.179 ZM 455.202,28.179 L 455.202,192.725 L 290.65,192.725 L 290.65,28.179 L 455.202,28.179 L 455.202,28.179 Z"  />
<glyph unicode="&#xe037;" d="M 406.385,354.323 106.787,354.323 106.787,381.197 406.385,381.197 406.385,354.323 z M 406.385,283.235 106.787,283.235 106.787,310.102 406.385,310.102 406.385,283.235 z M 406.385,209.797 106.787,209.797 106.787,239.013 406.385,239.013 406.385,209.797 z M 405.213,138.709 105.615,138.709 105.615,166.745 405.213,166.745 405.213,138.709 z M 405.213,68.783 106.787,68.783 106.787,95.653 405.213,95.653 405.213,68.783 z M 355.573,459.678 63.737,459.678 63.737-11.682 448.263-11.682 448.263,459.678 355.573,459.678 z"  />
<glyph unicode="&#xe040;" d="M 53.048,153.103 53.028,153.118 C 32.195,171.966 19.284,196.986 16.621,223.57 13.952,250.168 21.816,273.39 38.839,292.188 55.849,310.987 79.955,322.108 106.702,322.045 L 421.834,321.858 C 441.183,321.922 459.309,313.322 472.882,299.068 485.415,285.922 493.402,269.89 495.367,250.537 499.358,210.6 472.882,175.219 436.391,175.244 L 171.919,175.195 C 149.685,175.205 129.471,196.5 129.161,221.849 128.916,245.99 142.003,266.937 163.137,267 L 379.505,266.818 379.691,236.653 170.386,236.775 C 165.839,236.775 158.163,232.844 157.794,221.849 157.608,215.396 163.014,205.774 172.165,205.813 L 433.502,205.646 C 454.144,205.661 468.951,226.454 466.494,250.537 465.265,263.128 460.35,272.529 452.796,280.516 445.424,288.32 435.595,292.065 424.719,292.065 L 109.606,292.252 C 90.547,292.312 73.375,285.308 61.27,271.915 49.141,258.522 45.233,243.106 45.435,223.57 45.637,204.535 56.552,186.803 71.369,173.396 86.212,159.954 107.193,156.652 126.212,156.667 L 404.077,156.5 403.954,125.926 129.102,126.097 C 102.366,126.102 73.856,134.28 53.048,153.103"  />
<glyph unicode="&#xe041;" d="M 353.549,151.040 297.173,207.467 240.747,151.027 221.171,170.645 277.547,227.093 221.171,283.469 240.747,303.091 297.173,246.669 353.549,303.091 373.15,283.469 316.757,227.038 373.15,170.645 353.549,151.040 z M 31.309,223.091 142.135,112.567 480.691,112.567 480.691,335.411 142.135,335.411 31.309,223.091 z"  />
<glyph unicode="&#xe042;" d="M 143.945,373.391 442.664,373.391 442.664-0.051 143.945-0.051 143.945,373.391 z M 405.332,335.995 181.341,335.995 181.341,37.276 405.332,37.276 405.332,335.995 z M 301.674,255.11 218.673,255.11 218.673,267.553 301.674,267.553 301.674,255.11 z M 368,217.778 218.613,217.778 218.613,230.221 368,230.221 368,217.778 z M 326.562,180.446 218.673,180.446 218.673,192.889 326.562,192.889 326.562,180.446 z M 301.674,143.114 218.673,143.114 218.673,155.558 301.674,155.558 301.674,143.114 z M 359.728,105.717 218.613,105.717 218.613,118.162 359.728,118.162 359.728,105.717 z M 330.733,410.723 106.613,410.723 106.613,111.94 125.279,111.94 125.279,74.608 106.613,74.608 69.281,74.608 69.281,448.055 368,448.055 368,410.723 368,392.057 330.733,392.057 330.733,410.723 z"  />
<glyph unicode="&#xe043;" d="M 410.174,357.518 C 403.584,352.72 397.985,345.199 395.312,339.908 393.943,337.166 392.082,333.87 389.713,329.764 387.657,326.092 385.163,321.746 382.251,316.395 367.001,288.397 351.506,270.165 351.386,270.041 351.262,269.916 342.731,260.151 333.274,251.689 280.39,274.396 193.783,311.353 185.446,313.468 173.002,316.579 161.121,307.809 160.623,307.426 L 155.144,303.32 160.992,299.776 288.477,222.382 160.992,145.049 155.144,141.5 160.623,137.394 C 161.121,137.020 173.002,128.25 185.446,131.361 193.722,133.412 280.39,170.429 333.274,193.141 342.731,184.619 351.262,174.849 351.322,174.788 351.506,174.599 367.001,156.432 382.251,128.375 385.163,123.019 387.657,118.664 389.772,114.995 392.082,110.889 393.943,107.654 395.312,104.916 397.985,99.63 403.584,92.099 410.174,87.246 429.716,72.937 457.335,77.167 471.651,96.703 477.185,104.294 480.107,113.193 480.107,122.586 480.107,136.463 473.452,149.713 462.318,158.050 457.529,161.594 452.049,164.147 446.883,165.327 442.716,166.825 439.546,167.317 436.196,167.88 431.209,168.751 425.605,169.687 414.281,174.226 392.26,183.061 373.839,199.426 373.536,199.735 368.175,204.215 362.949,212.054 358.349,222.382 362.949,232.77 368.175,240.614 373.661,245.214 373.839,245.338 392.201,261.704 414.281,270.538 425.605,275.083 431.209,276.074 436.196,276.884 439.546,277.447 442.716,278.004 446.449,279.308 452.049,280.683 457.529,283.23 462.437,286.779 473.511,295.112 480.107,308.307 480.107,322.174 480.107,331.576 477.185,340.535 471.651,348.056 457.275,367.592 429.716,371.888 410.174,357.518 M 439.048,340.839 C 444.090,340.027 448.5,337.359 451.492,333.308 453.921,330.018 455.16,326.156 455.16,322.119 455.16,316.081 452.248,310.288 447.38,306.749 443.274,303.757 438.302,302.513 433.264,303.32 428.277,304.067 423.868,306.749 420.881,310.855 418.451,314.146 417.212,318.003 417.212,322.049 417.212,328.092 420.080,333.806 424.927,337.359 429.033,340.407 434.081,341.586 439.048,340.839 M 312.060,222.382 C 312.060,230.595 318.715,237.255 326.928,237.255 335.081,237.255 341.735,230.595 341.735,222.382 341.735,214.235 335.081,207.575 326.928,207.575 318.715,207.575 312.060,214.235 312.060,222.382 M 447.38,138.015 C 452.248,134.471 455.16,128.743 455.16,122.71 455.16,118.664 453.921,114.811 451.492,111.511 448.5,107.404 444.090,104.727 439.048,103.985 434.081,103.174 429.033,104.418 424.927,107.404 420.080,110.948 417.212,116.737 417.212,122.775 417.212,126.816 418.451,130.674 420.881,133.974 427.043,142.371 438.923,144.238 447.38,138.015M 330.536,37.348 69.223,37.348 69.223,410.652 330.536,410.652 330.536,335.991 367.866,335.991 367.866,447.982 31.893,447.982 31.893,0.018 330.536,0.018 367.866,0.018 367.866,112.009 330.536,112.009 330.536,37.348 z"  />
<glyph unicode="&#xe044;" d="M 387.213,262.631 C 386.927,264.393 385.844,266.124 384.228,267.775 371.187,254.529 318.721,252.335 256,252.335 193.279,252.335 140.843,254.529 127.736,267.775 126.166,266.124 125.163,264.393 124.787,262.631 L 124.661,262.631 124.661,261.679 C 124.661,261.564 124.661,261.453 124.661,261.338 124.661,261.081 124.721,260.856 124.721,260.61 L 134.948,51.386 135.012,51.386 C 135.891,35.018 154.707,10.24 256,10.24 357.318,10.24 376.114,35.018 376.997,51.386 L 377.072,51.386 387.294,260.61 C 387.314,260.856 387.39,261.081 387.39,261.338 387.39,261.453 387.314,261.564 387.314,261.679 L 387.39,262.631 387.213,262.631 zM 219.37,374.151 215.251,373.894 215.251,394.353 C 215.251,403.299 216.496,410.624 217.971,410.624 L 236.988,410.624 269.563,410.624 288.55,410.624 C 290.055,410.624 291.249,403.299 291.249,394.353 L 291.249,374.226 C 279.945,374.808 268.162,375.18 255.969,375.18 243.331,375.18 231.056,374.808 219.37,374.151 M 318.411,372.108 318.411,421.498 C 318.411,430.419 311.13,437.815 302.103,437.815 L 204.368,437.815 C 195.456,437.815 188.121,430.419 188.121,421.498 L 188.121,371.541 C 139.774,366.062 106.723,354.958 106.723,342.098 L 106.723,317.681 C 106.723,312.669 111.806,307.917 120.898,303.587 144.732,292.423 196.249,284.649 255.969,284.649 315.711,284.649 367.268,292.423 391.102,303.587 400.134,307.917 405.277,312.669 405.277,317.681 L 405.277,342.098 C 405.277,355.41 369.652,366.87 318.411,372.108"  />
<glyph unicode="&#xe045;" d="M 247.462,326.582 102.588,180.229 C 102.588,180.229 115.031,168.462 147.198,169.876 154.041,155.269 160.514,138.020 198.050,120.391 196.536,89.766 211.272,72.576 211.272,72.576 L 356.288,218.805 C 354.499,238.771 339.591,263.607 315.923,286.995 283.549,319.074 256.464,325.32 247.462,326.582M 457.104,431.222 C 414.558,466.091 385.127,455.871 370.155,441.437 364.974,436.403 348.523,423.147 336.445,413.505 350.002,412.632 377.24,406.785 407.139,377.201 436.871,347.78 442.55,322.578 442.871,308.528 452.982,321.656 468.851,342.115 471.306,344.575 487.683,361.213 499.648,396.353 457.104,431.222M 126.005,152.376 C 97.294,152.302 90.58,158.73 90.58,158.73 L 23.893-8.338 190.34,60.803 C 190.34,60.803 177.118,86.932 177.458,100.948 165.829,104.645 135.342,123.171 126.005,152.376M 317.776,397.448 301.251,381.194 C 301.251,381.194 332.798,376.062 370.185,339.014 393.631,315.74 406.326,291.091 408.544,273.896 L 424.32,289.612 C 424.32,289.612 429.807,318.078 389.254,358.62 349.45,398.459 317.776,397.448 317.776,397.448M 286.594,360.908 270.804,345.34 C 270.804,345.34 301.024,340.429 336.785,304.924 359.246,282.646 371.388,259.107 373.543,242.592 L 388.642,257.691 C 388.642,257.691 393.878,284.929 355.056,323.756 316.967,361.883 286.594,360.908 286.594,360.908"  />
<glyph unicode="&#xe046;" d="M 15.573,297.115 15.573,45.573 496.427,45.573 496.427,297.115 256,177.56 15.573,297.115 zM 15.573,402.431 15.573,335.498 256,216.003 496.427,335.498 496.427,402.431 15.573,402.431 z"  />
<glyph unicode="&#xe047;" d="M 423.327,108.357 333.64,108.357 333.64,20.137 80.755,20.137 80.755,318.164 423.327,318.164 423.327,108.357 z M 350.689,387.259 350.689,457.173 314.303,457.173 314.303,387.259 198.67,387.259 198.67,457.173 162.284,457.173 162.284,387.259 50.761,387.259 50.761,318.164 57.302,318.164 57.302-9.122 351.9-9.122 453.432,92.391 453.432,318.164 461.183,318.164 461.183,387.259 350.689,387.259 z"  />
<glyph unicode="&#xe048;" d="M 239.061,154.011 239.061,335.354 294.657,335.354 205.535,456.909 116.394,335.354 172.534,335.354 172.534,154.011 239.061,154.011 zM 339.406,112.646 339.406,293.989 272.942,293.989 272.942,112.646 217.297,112.646 306.453-8.909 395.584,112.646 339.406,112.646 z"  />
<glyph unicode="&#xe049;" d="M 290.459,91.865 C 306.775,74.052 387.263,28.066 387.263,28.066 L 418.148,89.144 C 418.148,89.144 288.653,151.574 290.459,214.448 L 290.459,292.428 290.408,292.815 347.565,292.815 255.955,417.758 164.363,292.815 164.43,292.815 221.606,292.815 221.541,292.428 221.541,214.448 C 223.327,151.574 93.852,89.144 93.852,89.144 L 124.737,28.066 C 124.737,28.066 205.271,74.052 221.541,91.865 L 255.795,121.852 290.459,91.865 z"  />
<glyph unicode="&#xe04a;" d="M 474.935,242.304 274.304,242.304 274.304,442.935 237.695,442.935 237.695,242.304 37.069,242.304 37.069,205.691 237.695,205.691 237.695,5.069 274.304,5.069 274.304,205.691 474.935,205.691 474.935,242.304 z"  />
<glyph unicode="&#xe04b;" d="M 125.629,77.781 125.609,77.781 C 101.414,77.781 78.687,87.198 61.596,104.295 44.529,121.407 35.037,144.113 35.037,168.313 35.037,192.514 44.465,215.225 61.596,232.352 L 263.019,433.775 C 275.429,446.186 291.499,452.267 308.441,450.837 324.013,449.6 339.467,442.031 351.937,429.62 377.568,403.93 379.489,364.028 356.157,340.696 L 187.047,171.6 C 172.844,157.393 150.788,158.817 134.5,175.080 119.066,190.529 117.522,214.108 131.030,227.636 L 269.348,365.949 287.775,347.522 149.477,209.209 C 146.578,206.29 147.437,198.968 152.923,193.447 154.491,191.894 162.796,184.2 168.604,190.032 L 337.73,359.128 C 350.881,372.342 348.959,395.675 333.505,411.188 325.439,419.254 315.763,424.094 306.331,424.839 297.083,425.708 288.396,422.357 281.446,415.347 L 79.997,213.92 C 67.811,201.762 61.099,185.505 61.099,168.313 61.099,151.127 67.84,134.919 80.028,122.728 92.2,110.56 108.383,103.848 125.609,103.848 142.855,103.848 159.053,110.536 171.21,122.728 L 345.608,297.071 364.035,278.643 189.607,104.295 C 172.546,87.198 149.809,77.781 125.629,77.781M 395.623,105.144 395.623,187.674 369.804,187.674 369.804,105.144 288.52,105.144 288.52,79.32 369.804,79.32 369.804-3.2 395.623-3.2 395.623,79.32 476.912,79.32 476.912,105.144 395.623,105.144 z"  />
<glyph unicode="&#xe04c;" d="M 13.116,343.68 13.116,158.933 366.234,158.933 366.234,343.68 189.7,255.893 13.116,343.68 zM 13.116,421.013 13.116,371.849 189.7,284.109 366.234,371.849 366.234,421.013 13.116,421.013 zM 428.322,121.015 428.322,192.64 405.914,192.64 405.914,121.015 335.305,121.015 335.305,98.607 405.914,98.607 405.914,26.987 428.322,26.987 428.322,98.607 498.88,98.607 498.88,121.015 428.322,121.015 z"  />
<glyph unicode="&#xe04d;" d="M 507.84,124.779 426.156,124.779 426.156,207.685 400.188,207.685 400.188,124.779 318.562,124.779 318.562,98.85 400.188,98.85 400.188,15.968 426.156,15.968 426.156,98.85 507.84,98.85 507.84,124.779 zM 68.067,333.851 102.364,333.851 102.364,367.611 231.62,367.611 333.226,367.611 333.226,179.766 68.067,179.766 68.067,333.851 z M 355.651,157.282 355.651,390.075 231.62,390.075 102.364,390.075 102.364,432.036 4.16,432.036 4.16,333.851 45.608,333.851 45.608,157.282 355.651,157.282 zM 98.248,259.254 303.289,259.254 303.289,279.231 98.248,279.231 98.248,259.254 zM 98.248,304.281 303.289,304.281 303.289,324.257 98.248,324.257 98.248,304.281 z"  />
<glyph unicode="&#xe04e;" d="M 397.069,107.093 397.069,178.718 374.66,178.718 374.66,107.093 304.107,107.093 304.107,84.689 374.66,84.689 374.66,13.12 397.069,13.12 397.069,84.689 467.627,84.689 467.627,107.093 397.069,107.093 zM 297.655,228.373 243.093,261.457 197.547,241.028 135.415,296.269 83.627,259.511 83.627,186.219 297.655,186.219 297.655,228.373 zM 314.88,164.425 64,164.425 64,415.253 314.88,415.253 314.88,164.425 z M 334.455,434.88 44.395,434.88 44.395,144.802 334.455,144.802 334.455,434.88 z"  />
<glyph unicode="&#xe04f;" d="M 96,15.949 96,400.055 224,400.055 C 224,417.758 238.345,432.055 256,432.055 273.707,432.055 288.055,417.758 288.055,400.055 L 416.055,400.055 416.055,15.949 96,15.949 z M 256,416.055 C 247.202,416.055 240,408.909 240,400.055 240,391.253 247.202,384.055 256,384.055 264.853,384.055 272,391.253 272,400.055 272,408.909 264.853,416.055 256,416.055 M 384.055,368.055 309.389,368.055 315.575,349.44 C 345.011,342.989 352.055,325.12 352.055,304.055 L 160,304.055 C 160,324.105 168.32,341.227 196.109,348.373 L 202.667,368.055 128,368.055 128,47.949 384.055,47.949 384.055,368.055 z M 266.667,250.667 160,250.667 160,261.333 266.667,261.333 266.667,250.667 z M 352.055,218.667 160,218.667 160,229.333 352.055,229.333 352.055,218.667 z M 298.722,186.667 160,186.667 160,197.333 298.722,197.333 298.722,186.667 z M 266.667,154.667 160,154.667 160,165.333 266.667,165.333 266.667,154.667 z M 341.389,122.667 160,122.667 160,133.333 341.389,133.333 341.389,122.667 z"  />
<glyph unicode="&#xe050;" d="M 410.807,136.098 332.803,183.431 267.602,154.203 178.692,233.207 104.598,180.637 104.598,75.776 410.807,75.776 410.807,136.098 zM 435.46,44.54 76.606,44.54 76.606,403.399 435.46,403.399 435.46,44.54 z M 48.482,16.482 463.518,16.482 463.518,431.518 48.482,431.518 48.482,16.482 z"  />
<glyph unicode="&#xe051;" d="M 256,117.352 C 275.119,117.352 290.511,131.328 296.296,148.268 297.774,152.619 299.581,156.023 299.581,160.931 299.581,184.984 280.032,204.522 256,204.522 231.962,204.522 212.419,184.984 212.419,160.931 212.419,156.023 213.464,152.608 214.929,148.258 220.727,131.328 236.881,117.352 256,117.352 M 255.607,98.814 C 221.559,98.814 193.857,125.728 192.469,159.438 L 32,239.247 32,5.227 480,5.227 480,239.247 318.784,159.448 C 317.365,125.728 289.675,98.814 255.607,98.814 M 255.607,442.773 32,331.645 32,267.118 69.458,267.118 69.458,310.365 442.792,310.365 442.792,267.118 480,267.118 480,331.645 255.607,442.773 z"  />
<glyph unicode="&#xe052;" d="M 463.2,399.244 431.229,431.215 256.012,255.954 80.695,431.215 48.75,399.244 223.992,224.008 48.75,48.766 80.695,16.747 256.012,192.062 431.229,16.747 463.2,48.766 287.958,224.008 463.2,399.244 z"  />
<glyph unicode="&#xe053;" d="M 399.814,239.172 112.186,239.172 112.186,43.413 399.814,43.413 399.814,239.172 z M 463.033,348.547 463.033,27.168 C 463.033,20.368 457.492,14.827 450.692,14.827 L 61.308,14.827 C 54.508,14.827 48.967,20.368 48.967,27.168 L 48.967,420.832 C 48.967,427.632 54.508,433.173 61.308,433.173 L 112.186,433.173 112.186,283.632 336.597,283.632 336.597,433.173 378.471,433.173 463.033,348.547 z M 362.035,116.579 141.779,116.579 141.779,91.898 362.035,91.898 362.035,116.579 z M 362.035,185.907 141.779,185.907 141.779,161.159 362.035,161.159 362.035,185.907 z M 300.898,306.551 215.198,306.551 215.198,416.616 300.898,416.616 300.898,306.551 z"  />
<glyph unicode="&#xe054;" d="M 455.112,24.888 L 455.112,0 L 480,0 L 480,24.888 L 455.112,24.888 L 455.112,24.888 Z M 455.112,71.744 L 455.112,48.285 L 480,48.285 L 480,71.744 L 455.112,71.744 L 455.112,71.744 Z M 455.112,118.595 L 455.112,95.136 L 480,95.136 L 480,118.595 L 455.112,118.595 L 455.112,118.595 Z M 455.112,165.451 L 455.112,141.991 L 480,141.991 L 480,165.451 L 455.112,165.451 L 455.112,165.451 Z M 455.112,212.302 L 455.112,188.847 L 480,188.847 L 480,212.302 L 455.112,212.302 L 455.112,212.302 Z M 455.112,259.158 L 455.112,235.698 L 480,235.698 L 480,259.158 L 455.112,259.158 L 455.112,259.158 Z M 455.112,306.009 L 455.112,282.549 L 480,282.549 L 480,306.009 L 455.112,306.009 L 455.112,306.009 Z M 455.112,352.859 L 455.112,329.405 L 480,329.405 L 480,352.859 L 455.112,352.859 L 455.112,352.859 Z M 455.112,399.715 L 455.112,376.261 L 480,376.261 L 480,399.715 L 455.112,399.715 L 455.112,399.715 Z M 455.112,448 L 455.112,423.112 L 480,423.112 L 480,448 L 455.112,448 L 455.112,448 Z M 408.261,24.888 L 408.261,0 L 431.715,0 L 431.715,24.888 L 408.261,24.888 L 408.261,24.888 Z M 408.261,448 L 408.261,423.112 L 431.715,423.112 L 431.715,448 L 408.261,448 L 408.261,448 Z M 274.667,205.333 L 274.667,93.333 L 386.667,93.333 L 386.667,205.333 L 274.667,205.333 L 274.667,205.333 Z M 274.667,354.667 L 274.667,242.667 L 386.667,242.667 L 386.667,354.667 L 274.667,354.667 L 274.667,354.667 Z M 361.405,448 L 361.405,423.112 L 384.859,423.112 L 384.859,448 L 361.405,448 L 361.405,448 Z M 314.549,448 L 314.549,423.112 L 338.009,423.112 L 338.009,448 L 314.549,448 L 314.549,448 Z M 267.698,448 L 267.698,423.112 L 291.158,423.112 L 291.158,448 L 267.698,448 L 267.698,448 Z M 220.847,24.888 L 220.847,0 L 244.302,0 L 244.302,24.888 L 220.847,24.888 L 220.847,24.888 Z M 220.847,448 L 220.847,423.112 L 244.302,423.112 L 244.302,448 L 220.847,448 L 220.847,448 Z M 173.991,448 L 173.991,423.112 L 197.451,423.112 L 197.451,448 L 173.991,448 L 173.991,448 Z M 127.136,448 L 127.136,423.112 L 150.595,423.112 L 150.595,448 L 127.136,448 L 127.136,448 Z M 237.333,242.667 L 237.333,354.667 L 125.333,354.667 L 125.333,242.667 L 237.333,242.667 L 237.333,242.667 Z M 80.285,24.888 L 80.285,0 L 103.744,0 L 103.744,24.888 L 80.285,24.888 L 80.285,24.888 Z M 80.285,448 L 80.285,423.112 L 103.744,423.112 L 103.744,448 L 80.285,448 L 80.285,448 Z M 32,24.888 L 32,0 L 56.888,0 L 56.888,24.888 L 32,24.888 L 32,24.888 Z M 32,71.744 L 32,48.285 L 56.888,48.285 L 56.888,71.744 L 32,71.744 L 32,71.744 Z M 32,118.595 L 32,95.136 L 56.888,95.136 L 56.888,118.595 L 32,118.595 L 32,118.595 Z M 32,165.451 L 32,141.991 L 56.888,141.991 L 56.888,165.451 L 32,165.451 L 32,165.451 Z M 32,212.302 L 32,188.847 L 56.888,188.847 L 56.888,212.302 L 32,212.302 L 32,212.302 Z M 32,259.158 L 32,235.698 L 56.888,235.698 L 56.888,259.158 L 32,259.158 L 32,259.158 Z M 32,306.009 L 32,282.549 L 56.888,282.549 L 56.888,306.009 L 32,306.009 L 32,306.009 Z M 32,352.859 L 32,329.405 L 56.888,329.405 L 56.888,352.859 L 32,352.859 L 32,352.859 Z M 32,399.715 L 32,376.261 L 56.888,376.261 L 56.888,399.715 L 32,399.715 L 32,399.715 Z M 32,448 L 32,423.112 L 56.888,423.112 L 56.888,448 L 32,448 L 32,448 Z M 237.333,93.333 L 237.333,205.333 L 125.333,205.333 L 125.333,93.333 L 237.333,93.333 L 237.333,93.333 Z M 150.595,0 L 150.595,24.888 L 127.136,24.888 L 127.136,0 L 150.595,0 L 150.595,0 Z M 197.451,0 L 197.451,24.888 L 173.991,24.888 L 173.991,0 L 197.451,0 L 197.451,0 Z M 291.158,0 L 291.158,24.888 L 267.698,24.888 L 267.698,0 L 291.158,0 L 291.158,0 Z M 338.009,0 L 338.009,24.888 L 314.549,24.888 L 314.549,0 L 338.009,0 L 338.009,0 Z M 384.859,0 L 384.859,24.888 L 361.405,24.888 L 361.405,0 L 384.859,0 L 384.859,0 Z"  />
<glyph unicode="&#xe055;" d="M 439.413,308.421 333.171,453.278 226.932,308.421 293.889,308.421 293.889,150.177 C 271.475,170.005 248.020,182.728 230.413,192.199 L 219.019,198.117 218.871,197.891 250.613,256.089 72.535,232.149 148.883,69.613 180.921,128.35 181.212,128.723 195.493,120.808 C 225.453,103.123 278.648,67.241 293.74,28.036 L 293.74-5.038 293.889-5.333 373.192-5.333 373.192,75.455 373.144,308.421 439.413,308.421 z"  />
<glyph unicode="&#xe056;" d="M 159.285,295.889 L 159.285,296.149 L 237.073,296.149 C 367.223,296.149 414.511,268.171 414.511,192.989 C 414.511,117.787 367.223,89.797 237.073,89.797 L 62.063,89.797 L 62.063,16.357 L 237.073,16.357 C 389.839,16.357 487.945,61.142 487.945,192.989 C 487.945,324.829 389.839,369.618 237.073,369.618 L 159.285,369.618 L 159.285,369.842 L 159.285,431.639 L 24.055,332.565 L 159.285,233.429 L 159.285,295.889 L 159.285,295.889 Z"  />
<glyph unicode="&#xe057;" d="M 32,391.997 32,328.969 201.615,243.846 C 212.69,262.642 232.909,275.27 256.12,275.27 279.331,275.27 299.55,262.642 310.626,243.846 L 480.055,328.969 480.055,391.997 32,391.997 z M 256.055,168.061 C 276.653,168.061 293.95,182.497 298.43,201.725 299.176,204.901 299.615,208.195 299.615,211.616 299.615,235.573 280.073,255.111 256.055,255.111 231.978,255.111 212.441,235.573 212.441,211.616 212.441,208.195 212.874,204.901 213.621,201.725 218.101,182.497 235.398,168.061 256.055,168.061 M 319.525,211.247 C 319.525,175.841 291.152,147.159 256.12,147.159 221.087,147.159 192.714,175.841 192.714,211.247 192.714,211.496 192.714,211.805 192.714,212.118 L 32,292.817 32,56.003 480.055,56.003 480.055,292.817 319.525,212.118 C 319.525,211.805 319.525,211.496 319.525,211.247"  />
<glyph unicode="&#xe060;" d="M 434.133,99.52 434.133,169.545 412.898,169.545 412.898,99.52 343.945,99.52 343.945,78.285 412.898,78.285 412.898,9.229 434.133,9.229 434.133,78.285 503.518,78.285 503.518,99.52 434.133,99.52 zM 386.667,248.909 C 399.066,248.909 410.752,252.032 420.971,257.515 C 443.093,251.712 460.373,237.965 468.322,208.388 L 370.402,208.388 C 356.053,221.082 338.961,230.703 319.147,237.18 C 327.945,247.817 339.311,254.076 352.384,257.51 C 362.603,252.032 374.289,248.909 386.667,248.909 Z M 157.602,237.193 C 137.813,230.716 120.691,221.094 106.347,208.388 L 8.482,208.388 C 16.427,237.956 33.707,251.708 55.787,257.51 C 66.027,252.032 77.705,248.909 90.082,248.909 C 102.507,248.909 114.185,252.032 124.373,257.515 C 137.493,254.084 148.855,247.825 157.602,237.193 Z M 302.135,213.636 C 343.245,202.846 375.424,177.28 390.178,122.295 L 86.562,122.295 C 101.333,177.28 133.495,202.837 174.558,213.632 C 193.6,203.435 215.305,197.628 238.345,197.628 C 261.385,197.628 283.149,203.435 302.135,213.636 Z M 443.52,321.707 C 443.52,290.33 418.078,264.879 386.667,264.879 C 371.861,264.879 358.421,270.588 348.309,279.876 C 350.78,284.966 352.892,290.261 354.65,295.714 C 363.473,284.053 375.761,276.715 389.444,276.715 C 406.396,276.715 421.286,287.842 429.973,304.695 L 357.146,304.695 C 359.322,313.813 360.516,323.307 360.516,333.069 C 360.516,345.549 358.618,357.653 355.115,369.011 C 364.139,375.040 374.993,378.56 386.667,378.56 C 418.078,378.56 443.52,353.118 443.52,321.707 Z M 90.082,264.879 C 58.718,264.879 33.28,290.33 33.28,321.707 C 33.28,353.118 58.718,378.56 90.082,378.56 C 101.76,378.56 112.585,375.040 121.6,369.011 C 118.080,357.653 116.211,345.6 116.211,333.069 C 116.211,323.307 117.389,313.813 119.573,304.695 L 52.322,304.695 C 61.013,287.842 75.895,276.715 92.851,276.715 C 104.585,276.715 115.251,282.129 123.682,290.991 C 125.069,287.177 126.669,283.456 128.427,279.829 C 118.293,270.575 104.853,264.879 90.082,264.879 Z M 318.878,301.359 L 168.107,301.359 C 184.269,270.033 212.002,249.344 243.52,249.344 C 275.042,249.344 302.72,270.033 318.878,301.359 Z M 238.345,227.337 C 179.947,227.337 132.642,274.662 132.642,333.069 C 132.642,391.467 179.947,438.771 238.345,438.771 C 296.747,438.771 344.068,391.467 344.068,333.069 C 344.068,274.662 296.747,227.337 238.345,227.337 Z"  />
<glyph unicode="&#xe061;" d="M 415.813,80.973 415.813,161.431 391.414,161.431 391.414,80.973 312.192,80.973 312.192,56.574 391.414,56.574 391.414-22.771 415.813-22.771 415.813,56.574 495.541,56.574 495.541,80.973 415.813,80.973 zM 196.8,253.11 C 160.59,253.11 128.72,276.877 110.15,312.875 L 283.39,312.875 C 264.82,276.877 233.023,253.11 196.8,253.11 M 190.863,470.771 C 123.754,470.771 69.401,416.419 69.401,349.32 69.401,282.197 123.754,227.824 190.863,227.824 257.986,227.824 312.374,282.197 312.374,349.32 312.374,416.419 257.986,470.771 190.863,470.771M 264.208,212.053 C 242.368,200.326 217.4,193.654 190.917,193.654 164.444,193.654 139.5,200.326 117.626,212.044 70.441,199.649 33.487,170.256 16.514,107.078 L 365.383,107.078 C 348.406,170.27 311.442,199.66 264.208,212.053"  />
<glyph unicode="&#xe062;" d="M 373.013,188.8 C 407.253,179.819 434.078,158.519 446.345,112.695 L 321.417,112.695 C 307.042,137.455 285.76,154.167 257.067,163.26 C 264.747,169.186 271.518,176.132 277.333,183.872 C 290.453,178.487 304.802,175.475 319.868,175.475 C 339.076,175.475 357.18,180.309 373.013,188.8 Z M 297.28,261.867 C 292.8,294.135 273.869,321.707 247.147,337.975 C 263.040,361.118 289.655,376.371 319.868,376.371 C 368.525,376.371 407.94,336.96 407.94,288.32 C 407.94,239.646 368.525,200.23 319.868,200.23 C 309.333,200.23 299.255,202.176 289.869,205.577 C 292.587,211.925 294.669,218.59 296.107,225.498 C 304.747,221.026 314.24,218.56 324.16,218.56 C 350.421,218.56 373.504,235.797 386.948,261.867 L 297.28,261.867 L 297.28,261.867 Z M 245.227,147.716 C 279.467,138.735 306.24,117.44 318.507,71.629 L 65.6,71.629 C 77.918,117.44 104.691,138.726 138.935,147.716 C 154.773,139.217 172.851,134.4 192.051,134.4 C 211.255,134.4 229.385,139.226 245.227,147.716 Z M 259.149,220.8 L 133.547,220.8 C 146.987,194.705 170.078,177.468 196.373,177.468 C 222.613,177.468 245.705,194.705 259.149,220.8 Z M 192.051,159.142 C 143.411,159.142 104,198.558 104,247.202 C 104,295.842 143.411,335.253 192.051,335.253 C 240.695,335.253 280.107,295.842 280.107,247.202 C 280.107,198.558 240.695,159.142 192.051,159.142 Z"  />
<glyph unicode="&#xe063;" d="M 374.67,170.764 63.331,170.764 63.331,208.349 374.67,208.349 374.67,170.764 z M 63.331,273.726 275.839,273.726 275.839,236.076 63.331,236.076 63.331,273.726 z M 413.798,362.206 17.933,362.206 17.933,85.736 415.030,85.736 415.030,283.397 494.080,362.264 413.798,362.206 z"  />
<glyph unicode="&#xe064;" d="M 97.942,274.020 38.289,174.17 89.614,174.17 149.128,274.020 97.942,274.020 z M 167.405,274.020 107.921,174.17 159.087,174.17 218.74,274.020 167.405,274.020 z M 473.655,224 287.268,411.574 287.268,274.020 240.249,274.020 181.165,174.17 287.268,174.17 287.268,36.426 473.655,224 z"  />
<glyph unicode="&#xe065;" d="M 261.675,189.315 C 226.607,189.315 195.775,212.315 177.793,247.165 L 345.493,247.165 C 327.571,212.315 296.745,189.315 261.675,189.315 M 255.931,400.054 C 190.956,400.054 138.35,347.384 138.35,282.464 138.35,217.47 190.956,164.82 255.931,164.82 320.914,164.82 373.536,217.47 373.536,282.464 373.536,347.384 320.914,400.054 255.931,400.054M 128.411,235.642 C 119.086,225.785 107.201,219.762 94.156,219.762 75.293,219.762 58.735,232.139 49.045,250.871 L 123.847,250.871 C 121.422,261.011 120.101,271.583 120.101,282.454 120.101,296.372 122.208,309.832 126.109,322.453 116.082,329.159 104.027,333.056 91.059,333.056 56.116,333.056 27.83,304.775 27.83,269.837 27.83,234.904 56.116,206.594 91.059,206.594 107.514,206.594 122.451,212.93 133.703,223.234 131.741,227.262 129.972,231.399 128.411,235.642M 420.963,333.056 C 407.971,333.056 395.901,329.125 385.864,322.414 389.77,309.774 391.868,296.353 391.868,282.444 391.868,271.549 390.555,261.005 388.122,250.881 L 469.136,250.881 C 459.475,232.105 442.924,219.733 424.059,219.733 408.83,219.733 395.164,227.901 385.352,240.888 383.401,234.792 381.041,228.94 378.291,223.268 389.546,212.964 404.499,206.566 420.963,206.566 455.906,206.566 484.24,234.91 484.24,269.843 484.24,304.756 455.906,333.056 420.963,333.056M 326.903,149.565 C 305.743,138.222 281.583,131.765 255.945,131.765 230.278,131.765 206.138,138.222 184.987,149.565 139.325,137.553 103.481,109.107 87.079,47.946 L 424.801,47.946 C 408.405,109.121 372.619,137.563 326.903,149.565M 166.148,175.782 C 156.385,187.613 143.734,194.569 129.177,198.392 117.804,192.295 104.821,188.818 91.045,188.818 77.268,188.818 64.222,192.281 52.883,198.392 28.318,191.929 9.055,176.641 0.213,143.741 L 109.103,143.741 C 125.080,157.87 144.104,168.574 166.148,175.782M 402.86,143.776 511.735,143.776 C 502.957,176.67 483.694,191.974 459.105,198.426 447.732,192.329 434.74,188.857 420.943,188.857 407.167,188.857 394.174,192.32 382.807,198.426 368.269,194.603 355.614,187.639 345.845,175.803 367.878,168.599 386.878,157.894 402.86,143.776"  />
<glyph unicode="&#xe066;" d="M 263.085,181.055 C 219.683,181.055 181.476,209.552 159.274,252.701 L 366.893,252.701 C 344.703,209.552 306.513,181.055 263.085,181.055 M 255.99,441.975 C 175.587,441.975 110.357,376.819 110.357,296.417 110.357,215.923 175.587,150.747 255.99,150.747 336.44,150.747 401.628,215.923 401.628,296.417 401.628,376.819 336.44,441.975 255.99,441.975M 343.868,131.826 C 317.68,117.794 287.752,109.781 255.99,109.781 224.203,109.781 194.305,117.778 168.11,131.826 111.559,116.962 67.245,81.736 46.934,5.973 L 465.117,5.973 C 444.813,81.749 400.479,116.978 343.868,131.826"  />
<glyph unicode="&#xe067;" d="M 291.153,281.979 234.317,281.979 234.317,441.491 13.653,224.086 234.317,6.509 234.317,166.243 291.551,166.243 C 321.985,166.243 353.211,153.053 371.521,125.147 381.666,109.569 387.968,83.695 387.968,65.431 L 498.347,125.147 C 489.504,169.866 451.171,281.979 291.153,281.979"  />
<glyph unicode="&#xe068;" d="M 186.615,299.255 186.615,384.107 25.869,224.051 186.615,63.893 186.615,148.745 110.562,224.051 186.615,299.255 z M 333.653,266.688 288,266.688 288,384.107 273.173,368.371 129.335,224.051 288,63.893 288,181.495 333.76,181.495 C 356.322,181.495 379.149,171.789 392.747,151.202 400.269,139.789 404.907,120.695 404.907,107.255 L 486.135,151.202 C 479.518,184.162 451.307,266.688 333.653,266.688"  />
<glyph unicode="&#xe069;" d="M 75.947,46.276 110.24,207.909 326.309,222.957 326.309,225.1 110.24,240.147 75.947,401.776 436.053,223.994 75.947,46.276 z"  />
<glyph unicode="&#xe06a;" d="M 372.907,155.307 C 355.669,155.307 340.25,147.627 329.771,135.552 L 194.027,208.589 C 195.413,213.495 196.211,218.667 196.211,224 196.211,229.385 195.413,234.505 194.027,239.411 L 329.771,312.482 C 340.25,300.425 355.669,292.693 372.907,292.693 404.361,292.693 429.973,318.293 429.973,349.602 429.973,381.069 404.361,406.613 372.907,406.613 341.419,406.613 315.84,381.069 315.84,349.602 315.84,344.269 316.638,339.093 318.029,334.187 L 182.187,261.278 C 171.733,273.28 156.318,280.853 139.145,280.853 107.682,280.853 82.082,255.518 82.082,224 82.082,192.529 107.682,167.155 139.145,167.155 156.318,167.155 171.733,174.758 182.242,186.778 L 318.029,113.839 C 316.638,108.928 315.84,103.77 315.84,98.453 315.84,66.987 341.419,41.387 372.907,41.387 404.361,41.387 429.973,66.987 429.973,98.453 429.973,129.754 404.361,155.307 372.907,155.307"  />
<glyph unicode="&#xe070;" d="M 290.679,189.997 L 372.605,250.040 L 290.679,310.081 L 290.679,272.229 L 191.31,272.229 L 191.31,269.834 L 191.239,269.834 L 191.239,130.507 L 235.915,130.507 L 235.915,227.462 L 290.679,227.462 L 290.679,189.997 L 290.679,189.997 Z M 474.659,232.717 C 477.054,230.359 478.323,227.169 478.323,223.812 C 478.323,220.465 477.054,217.31 474.659,214.928 L 282.927,23.148 L 265.011,5.341 C 262.581,2.869 259.362,1.6 256.13,1.6 C 252.946,1.6 249.718,2.869 247.281,5.341 L 37.629,214.928 C 32.769,219.879 32.769,227.81 37.629,232.717 L 247.281,442.293 C 252.173,447.309 260.157,447.231 265.059,442.293 L 474.659,232.717 L 474.659,232.717 Z"  />
<glyph unicode="&#xe071;" d="M 454.4,56.32 56.695,56.32 56.695,390.72 454.4,390.72 454.4,56.32 z M 483.947,422.293 28.070,422.293 28.070,25.707 483.947,25.707 483.947,422.293 z M 89.707,257.173 C 88.802,264.64 77.44,269.333 74.133,274.078 L 74.133,266.56 C 79.147,261.709 89.707,257.387 89.707,257.173 M 387.038,98.347 C 376.96,94.507 375.518,78.771 377.493,72.747 L 436.962,72.747 436.962,131.84 C 423.147,122.56 409.493,106.88 387.038,98.347 M 258.505,228.373 C 277.973,220.638 276.693,119.040 308.267,145.971 324.907,160.162 329.442,178.078 330.611,197.547 331.2,207.68 361.655,232.96 358.669,239.36 356.16,244.638 340.16,231.573 339.362,243.307 338.935,250.347 317.867,265.387 321.758,270.827 327.573,279.147 336,255.573 335.893,255.842 341.227,243.149 345.869,245.389 357.44,248.32 384.269,255.091 361.335,263.573 354.402,272.589 345.173,284.587 383.735,270.293 386.24,270.242 401.655,270.135 404.322,233.442 412.587,235.255 417.869,236.425 431.202,249.813 438.025,257.869 L 438.025,354.185 C 432.32,354.027 419.093,353.869 413.389,353.869 406.669,353.92 372.745,350.669 374.345,363.469 374.507,364.693 328.375,350.771 323.469,352.055 317.547,353.6 334.029,361.438 333.973,360.691 334.293,363.733 332.745,365.653 330.078,366.827 L 309.175,366.827 C 289.971,363.2 265.971,353.387 261.602,347.2 266.185,353.707 276.109,330.935 276.211,330.88 278.135,330.078 293.491,356.8 299.575,346.88 307.52,333.973 272.853,327.202 265.971,329.869 261.171,331.785 253.069,320.533 251.149,322.402 245.547,327.893 247.411,346.24 244.693,347.84 236.8,352.482 231.36,327.68 230.293,326.135 228.962,324.215 254.775,315.785 244.8,310.827 242.24,309.547 219.149,311.68 222.775,299.947 228.535,281.335 269.12,320.158 274.935,306.611 279.202,296.64 321.442,309.602 329.442,311.573 321.225,277.76 286.242,285.227 262.4,291.947 239.893,298.347 215.735,275.575 214.669,253.922 212.8,215.518 239.787,235.947 258.505,228.373 M 348.267,157.922 C 357.491,163.255 355.038,185.869 352.371,189.12 347.469,184.589 339.627,153.011 348.267,157.922 M 110.985,311.202 C 115.575,315.149 101.867,326.187 110.669,328.482 112.802,329.067 142.080,311.842 142.242,314.185 142.827,321.173 109.973,340.587 102.933,344.589 79.842,357.653 85.282,336.802 74.133,327.091 L 74.133,291.042 C 75.2,292.693 83.038,294.455 84.8,296.427 92.267,304.64 103.147,304.533 110.985,311.202 M 103.629,95.309 C 90.829,114.453 119.518,131.413 133.44,144.747 141.12,152.107 187.469,195.891 167.305,204.8 155.038,210.185 112,248.32 97.545,238.72 93.547,236.053 81.545,233.545 75.2,233.335 L 75.2,197.069 C 80.853,187.789 97.975,182.029 97.869,170.133 97.707,151.202 73.762,99.038 103.629,95.309"  />
<glyph unicode="&#xe072;" d="M 365.119,371.64 C 350.428,397.21 327.078,416.875 296.147,427.245 290.735,429.078 285.262,430.523 279.468,431.57 273.431,432.627 266.882,433.402 260.091,433.801 L 255.997,433.801 251.97,433.801 C 245.112,433.402 238.564,432.627 232.527,431.57 226.737,430.523 221.26,429.078 215.913,427.245 185.072,416.875 161.602,397.21 146.876,371.64 136.808,354.070 130.136,332.176 131.647,305.372 132.342,293.103 135.609,282.089 139.385,272.085 143.352,262.268 147.944,253.331 153.295,244.838 173.811,211.481 201.565,181.843 217.297,143.707 225.353,124.324 232.401,104.126 238.442,82.604 244.357,61.394 249.705,38.799 251.97,14.135 L 255.997,14.135 260.091,14.135 C 262.29,38.799 267.702,61.394 273.553,82.604 279.599,104.126 286.708,124.324 294.702,143.707 310.44,181.843 338.23,211.481 358.695,244.838 364.077,253.331 368.663,262.268 372.595,272.085 376.391,282.089 379.673,293.103 380.328,305.372 381.894,332.176 375.213,354.070 365.119,371.64 M 255.997,266.044 C 229.818,266.044 208.548,286.493 208.548,311.836 208.548,337.14 229.818,357.61 255.997,357.61 282.242,357.61 303.477,337.14 303.477,311.836 303.477,286.493 282.242,266.044 255.997,266.044"  />
<glyph unicode="&#xe073;" d="M 423.864,271.212 424.929,269.721 426.982,269.572 429.005,270.587 429.768,272.586 429.436,272.372 427.201,273.671 424.791,274.108 423.864,271.212 zM 437.62,256.153 L 407.842,258.745 L 406.088,261.933 L 408.209,267.698 L 412.423,272.328 L 417.128,272.035 L 436.688,259.355 L 437.62,256.153 L 437.62,256.153 ZM 137.775,271.401 135.524,263.3 142.821,271.584 143.426,274.162 140.283,275.401 137.775,271.401 zM 142.177,284.472 142.147,284.037 129.626,278.147 145.458,281.275 142.177,284.472 zM 151.655,268.793 153.197,270.027 154.549,273.156 154.326,272.744 155.417,276.422 152.428,276.863 150.157,276.279 148.661,274.683 147.907,272.041 149.899,269.472 151.655,268.793 zM 401.74,325.18 399.49,326.429 389.472,327.049 385.258,330.603 390.353,349.391 365.435,309.064 358.887,304.163 371.027,299.557 401.74,325.18 zM 425.227,213.398 L 430.016,211.246 L 450.022,174.009 L 425.227,213.398 L 425.227,213.398 ZM 455.713,167.421 L 454.658,168.565 L 456.254,169.552 C 460.795,186.862 463.367,204.991 463.253,223.753 C 463.115,237.072 461.667,250.085 459.188,262.661 L 458.072,264.892 L 458.47,266.443 C 452.045,296.063 439.107,323.203 421.489,346.625 L 420.181,346.065 L 412.675,353.748 L 415.437,354.616 C 408.973,362.358 401.795,369.547 394.265,376.303 L 387.925,376.674 L 376.4,371.782 L 346.161,330.698 L 347.584,325.309 L 361.771,314.403 L 361.771,308.762 L 321.807,279.267 L 322.12,275.49 L 325.337,270.097 L 326.452,265.205 L 309.167,258.324 L 307.804,249.465 L 309.107,238.559 L 282.582,186.496 L 281.471,163.41 L 301.235,151.776 L 333.829,151.885 L 348.512,147.682 L 376.523,53.844 C 414.634,81.172 442.989,121.037 455.713,167.421 Z M 251.599,335.467 L 259.040,328.036 L 317.47,378.533 L 331.166,415.217 C 307.367,424.511 281.595,429.651 254.455,429.467 C 250.921,429.408 247.451,429.036 243.921,428.848 L 241.194,427.361 L 235.678,419.494 L 234.626,414.224 L 236.728,410.318 L 251.788,408.4 L 256.126,379.337 L 248.69,361.868 L 246.895,349.039 L 251.599,335.467 L 251.599,335.467 Z M 174.581,341.232 L 172.847,346.56 L 170.927,349.287 L 169.004,349.783 L 161.941,340.924 L 163.244,339.561 L 171.854,339.561 L 174.581,341.232 L 174.581,341.232 Z M 244.476,73.052 L 257.677,116.338 L 247.326,124.011 L 217.649,132.824 L 200.234,155.603 L 178.859,163.732 L 128.544,165.443 L 113.237,191.22 L 109.207,191.69 L 96.69,185.658 L 92.17,190.491 L 91.302,197.555 L 92.853,203.355 L 100.721,214.062 L 110.138,219.272 L 133.502,214.924 L 136.907,205.099 L 144.159,203.379 L 144.036,218.38 L 163.616,246.922 L 206.926,271.029 L 200.606,271.832 L 189.393,280.076 L 217.832,288.131 L 218.883,285.588 L 218.515,283.234 L 216.717,280.938 L 213.618,278.707 L 215.849,275.738 L 222.789,275.361 L 228.43,277.473 L 209.776,322.518 L 207.174,322.147 L 184.436,333.116 L 179.355,328.219 L 166.094,294.327 L 159.71,300.028 L 144.591,307.028 L 135.236,317.685 L 146.262,334.232 L 179.91,360.316 L 184.867,374.38 L 200.422,364.53 L 202.837,359.141 L 186.538,345.881 L 202.773,335.655 L 206.307,337.514 L 207.982,337.454 L 214.858,348.355 L 213.311,350.094 L 222.789,360.499 L 215.477,373.022 L 196.705,389.067 L 206.618,390.867 L 206.123,393.47 L 200.665,394.708 L 184.991,385.846 L 190.013,394.148 L 179.478,390.802 L 177.619,364.965 L 169.252,359.261 L 163.368,364.842 L 178.795,393.593 L 177.492,394.828 L 176.068,395.452 L 174.522,395.452 L 172.722,394.769 L 148.185,360.565 L 148.62,362.612 L 151.159,367.38 L 150.232,369.304 L 146.018,366.824 L 110.759,359.572 L 104.314,363.167 C 69.614,325.74 48.363,275.738 48.794,220.705 C 48.794,220.050 48.919,219.401 48.919,218.706 L 48.983,219.034 L 54.124,217.151 L 72.777,185.44 L 128.976,160.669 L 136.659,152.172 L 136.784,140.909 L 129.784,124.15 L 129.407,114.959 L 153.761,67.847 L 154.505,41.763 C 167.642,34.328 181.586,28.191 196.328,23.729 L 221.798,56.386 L 244.476,73.052 L 244.476,73.052 Z M 53.504,201.794 L 53.693,205.571 L 49.231,213.195 C 49.231,212.501 49.354,211.812 49.354,211.128 L 53.504,201.794 L 53.504,201.794 Z M 111.006,369.304 L 110.263,367.876 L 120.365,362.116 L 135.172,368.991 L 146.822,381.444 L 147.069,392.661 L 137.031,390.679 L 136.040,391.051 C 128.976,386.034 122.284,380.516 115.964,374.632 L 117.079,373.512 L 111.006,369.304 L 111.006,369.304 Z M 151.406,386.157 L 151.406,383.674 L 157.048,382.806 L 161.073,387.58 L 162.188,393.098 L 159.214,394.644 L 151.406,386.157 L 151.406,386.157 Z M 173.59,412.365 C 169.748,410.755 166.094,408.772 162.372,406.913 L 163.244,405.798 L 167.393,406.045 L 171.979,408.028 L 174.522,411.062 L 173.59,412.365 L 173.59,412.365 Z M 182.453,414.349 L 182.076,405.986 L 189.636,399.973 L 199.366,398.67 L 205.315,404.435 L 201.721,404.99 L 186.786,413.481 L 182.453,414.349 L 182.453,414.349 Z M 205.127,418.622 L 196.392,412.678 L 207.853,413.169 L 230.16,427.733 C 223.037,426.865 216.097,425.561 209.221,424.015 L 205.127,418.622 L 205.127,418.622 Z M 330.794,346.496 L 332.589,351.825 L 329.243,353.193 L 322.12,351.581 L 315.303,353.064 L 315.051,344.642 L 315.799,342.783 L 324.97,341.91 L 330.794,346.496 L 330.794,346.496 Z M 332.589,295.874 L 318.585,316.817 L 318.649,297.237 L 322.675,287.263 L 332.034,289.43 L 332.589,295.874 L 332.589,295.874 Z M 256.002,453.758 C 382.904,453.758 485.739,350.898 485.739,224.011 C 485.739,97.094 382.904-5.706 256.002-5.706 C 129.164-5.706 26.24,97.094 26.24,224.011 C 26.24,350.898 129.164,453.758 256.002,453.758 ZM 426.774,239.735 L 426.263,230.807 L 381.198,221.761 L 373.113,224.591 L 356.135,239.987 L 318.585,238.605 L 347.213,259.856 L 360.908,259.94 L 370.054,245.584 L 371.794,246.218 L 373.172,247.235 L 375.046,250.382 L 374.323,255.499 L 364.75,262.508 L 363.571,267.396 L 364.254,266.458 L 368.127,267.405 L 368.161,267.589 L 392.451,242.233 L 393.253,242.932 L 392.634,251.954 L 395.752,248.162 L 426.774,239.735 L 426.774,239.735 Z"  />
<glyph unicode="&#xe080;" d="M 225.272,230.358 L 165.455,191.212 L 165.455,144.723 L 346.48,144.723 L 346.48,170.429 L 311.032,198.542 L 282.174,187.561 L 225.272,230.358 L 225.272,230.358 ZM 142.223,327.139 369.777,327.139 369.777,120.862 142.223,120.862 142.223,327.139 z M 465.173,120.862 399.125,120.862 399.125,356.481 142.223,356.481 142.223,422.53 112.875,422.53 112.875,356.481 46.827,356.481 46.827,327.139 112.875,327.139 112.875,91.52 369.777,91.52 369.777,25.466 399.125,25.466 399.125,91.52 465.173,91.52 465.173,120.862 z"  />
<glyph unicode="&#xe081;" d="M 293.797,222.271 C 293.797,245.299 275.11,263.996 252.028,263.996 229,263.996 210.325,245.299 210.325,222.271 210.325,199.219 229,180.528 252.028,180.528 275.11,180.528 293.797,199.219 293.797,222.271M 456.27,239.115 C 454.296,265.863 447.311,291.54 435.544,315.466 423.278,340.26 406.389,362.026 385.285,380.197 364.216,398.373 340.175,411.936 313.8,420.391 288.628,428.593 261.619,431.309 235.502,429.79 208.557,427.836 182.876,420.83 158.964,408.907 138.204,398.747 119.276,384.235 103.002,367.643 L 102.749,367.834 64.892,400.008 55.11,266.898 185.086,297.689 147.542,329.599 147.29,329.786 C 157.895,339.82 171.018,349.598 184.203,356.099 200.986,364.362 219.728,369.536 238.404,370.924 258.216,371.999 277.205,369.914 294.811,364.236 313.548,358.178 330.644,348.527 345.727,335.526 360.809,322.532 372.857,307.011 381.564,289.329 390.020,272.309 395.037,254.036 396.44,234.991 396.723,231.211 396.859,227.546 396.859,223.887 396.859,208.456 394.467,193.232 389.768,178.731 383.71,159.994 374.12,142.838 361.122,127.755 347.998,112.672 332.477,100.563 314.871,91.917 297.84,83.527 279.477,78.48 260.235,77.026 256.702,76.774 253.042,76.648 249.318,76.648 234.048,76.648 218.845,79.046 204.268,83.714 185.526,89.837 168.368,99.422 153.286,112.42 138.204,125.484 126.155,141.005 117.448,158.611 L 65.519,132.485 C 77.698,107.691 94.607,85.925 115.682,67.754 136.882,49.517 160.857,36.014 187.17,27.56 207.488,20.998 228.748,17.651 250.2,17.651 L 251.21,17.651 C 256.005,17.651 260.866,17.843 265.661,18.161 292.348,20.18 318.026,27.182 342.006,38.982 366.8,51.284 388.57,68.128 406.768,89.206 424.929,110.276 438.466,134.317 446.917,160.626 453.493,181.083 456.83,202.374 456.83,223.887 456.83,228.98 456.653,234.018 456.27,239.115"  />
<glyph unicode="&#xe082;" d="M 218.204,222.276 C 218.204,199.224 236.9,180.533 259.982,180.533 283.005,180.533 301.746,199.224 301.746,222.276 301.746,245.303 283.005,263.999 259.982,263.999 236.9,263.999 218.204,245.303 218.204,222.276M 358.717,112.428 C 343.604,99.461 326.458,89.805 307.737,83.742 293.099,79.023 277.896,76.636 262.688,76.636 258.963,76.671 255.303,76.782 251.771,77.054 232.469,78.473 214.106,83.505 197.136,91.894 179.465,100.581 163.944,112.675 150.886,127.787 137.888,142.859 128.237,160 122.176,178.741 117.511,193.253 115.114,208.461 115.114,223.917 115.114,227.511 115.24,231.236 115.553,234.96 116.941,254.015 121.989,272.312 130.377,289.343 139.084,307.014 151.198,322.535 166.22,335.528 181.297,348.529 198.458,358.18 217.2,364.237 234.8,369.915 253.794,372 273.54,370.926 292.215,369.537 310.967,364.424 327.8,356.1 340.939,349.6 354.073,339.822 364.643,329.788 L 364.4,329.601 326.918,297.671 456.825,266.886 447.114,400.009 409.232,367.836 408.984,367.644 C 392.717,384.236 373.753,398.748 352.988,408.907 329.093,420.83 303.416,427.836 276.442,429.79 250.387,431.309 223.379,428.593 198.206,420.391 171.832,411.936 147.731,398.374 126.723,380.198 105.584,362.027 88.675,340.262 76.435,315.469 64.699,291.553 57.693,265.877 55.74,239.12 55.301,234.011 55.175,228.965 55.175,223.917 55.175,202.404 58.455,181.079 65.078,160.641 73.533,134.304 87.034,110.297 105.205,89.224 123.376,68.151 145.208,51.267 170.001,38.991 193.981,27.191 219.658,20.123 246.284,18.17 251.079,17.852 255.94,17.6 260.795,17.6 L 261.739,17.6 C 283.257,17.6 304.471,21.007 324.772,27.569 351.090,36.023 375.121,49.526 396.265,67.722 417.344,85.923 434.243,107.683 446.478,132.491 L 394.549,158.628 C 385.796,140.987 373.789,125.45 358.717,112.428"  />
<glyph unicode="&#xe083;" d="M 160.784,340.216 160.784,109.362 360.674,224.757 160.784,340.216 zM 435.46,44.54 76.606,44.54 76.606,403.399 435.46,403.399 435.46,44.54 z M 48.482,16.482 463.518,16.482 463.518,431.518 48.482,431.518 48.482,16.482 z"  />
<glyph unicode="&#xe090;" d="M 155.789,296.269 356.267,296.269 356.267,151.735 384.427,151.735 384.427,324.437 155.789,324.437 155.789,296.269 zM 268.48,380.8 268.48,352.636 412.587,352.636 412.587,222.187 440.747,222.187 440.747,380.8 268.48,380.8 zM 131.947,159.36 131.947,177.216 131.947,179.127 133.85,179.127 188.16,179.127 188.16,234.295 188.16,236.16 190.080,236.16 207.893,236.16 209.813,236.16 209.813,234.295 209.813,179.127 264.162,179.127 266.078,179.127 266.078,177.216 266.078,159.36 266.078,157.457 264.162,157.457 209.813,157.457 209.813,102.293 209.813,100.425 207.893,100.425 190.080,100.425 188.16,100.425 188.16,102.293 188.16,157.457 133.85,157.457 131.947,157.457 131.947,159.36 z M 71.253,67.251 328.055,67.251 328.055,268.16 71.253,268.16 71.253,67.251 z"  />
<glyph unicode="&#xe091;" d="M 254.241,125.634 151.355,265.919 215.539,265.919 215.539,396.902 292.303,396.902 292.303,265.919 357.13,265.919 254.241,125.634 z M 44.693,88.935 44.693,51.153 467.307,51.153 467.246,88.935 44.693,88.935 z"  />
<glyph unicode="&#xe092;" d="M 53.602,101.419 246.062,212.531 246.062,101.419 458.347,224 246.062,346.585 246.062,235.468 53.602,346.585 53.602,101.419 z"  />
<glyph unicode="&#xe093;" d="M 452.48,420.48 L 317.543,399.721 L 353.475,363.738 L 280.847,291.084 L 323.405,248.464 L 396.084,321.159 L 431.674,285.543 L 452.48,420.48 L 452.48,420.48 ZM 59.52,27.52 L 194.457,48.279 L 158.525,84.258 L 231.153,156.912 L 188.595,199.475 L 115.921,126.846 L 80.32,162.457 L 59.52,27.52 L 59.52,27.52 ZM 59.52,420.48 L 80.31,285.543 L 116.252,321.475 L 188.912,248.847 L 231.536,291.405 L 158.846,364.074 L 194.457,399.706 L 59.52,420.48 L 59.52,420.48 ZM 452.48,27.52 L 431.696,162.457 L 395.748,126.525 L 323.084,199.153 L 280.53,156.595 L 353.159,83.926 L 317.543,48.299 L 452.48,27.52 L 452.48,27.52 Z"  />
<glyph unicode="&#xe094;" d="M 171.493,157.326 L 123.357,109.201 L 58.987,32.886 L 64.886,26.987 L 141.165,91.397 L 189.296,139.493 C 237.366,94.474 286.923,71.279 303.041,87.332 L 316.493,100.824 C 329.125,113.424 317.51,146.676 290.222,183.644 L 373.605,267.041 C 401.338,246.105 424.436,236.267 432.051,243.816 L 449.053,260.888 C 460.16,271.929 434.142,315.907 390.992,359.053 C 347.842,402.204 303.929,428.16 292.822,417.118 L 275.816,400.051 C 268.206,392.436 278.105,369.338 298.979,341.605 L 215.593,258.222 C 178.676,285.51 145.409,297.125 132.774,284.493 L 119.341,271.041 C 103.279,254.984 126.454,205.402 171.493,157.326 Z"  />
<glyph unicode="&#xe095;" d="M 429.39,345.386 429.39,235.275 238.669,345.386 238.669,235.275 47.949,345.386 47.949,102.669 238.669,212.837 238.669,102.669 429.39,212.837 429.39,102.669 464.055,102.669 464.055,345.386 429.39,345.386 z"  />
<glyph unicode="&#xe096;" d="M 77.278,45.278 220.269,45.278 220.269,402.722 77.278,402.722 77.278,45.278 zM 291.731,45.278 434.722,45.278 434.722,402.722 291.731,402.722 291.731,45.278 z"  />
<glyph unicode="&#xe097;" d="M 256,18.521 C 142.729,18.521 50.526,110.724 50.526,223.995 50.526,337.331 142.729,429.535 256,429.535 369.336,429.535 461.475,337.331 461.475,223.995 461.475,110.724 369.336,18.521 256,18.521 M 256,453.76 C 129.345,453.76 26.295,350.716 26.295,223.995 26.295,97.34 129.345-5.7 256-5.7 382.656-5.7 485.701,97.34 485.701,223.995 485.701,350.716 382.656,453.76 256,453.76M 160.143,128.138 236.851,128.138 236.851,319.857 160.143,319.857 160.143,128.138 zM 275.15,128.138 351.862,128.138 351.862,319.857 275.15,319.857 275.15,128.138 z"  />
<glyph unicode="&#xe098;" d="M 75.807,432.055 75.807,15.949 436.138,224 75.807,432.055 z"  />
<glyph unicode="&#xe099;" d="M 183.066,333.002 183.066,112.036 374.417,222.517 183.066,333.002 zM 256,18.469 C 142.729,18.469 50.526,110.672 50.526,224.004 50.526,337.275 142.729,429.478 256,429.478 369.337,429.478 461.475,337.275 461.475,224.004 461.475,110.672 369.337,18.469 256,18.469 M 256,453.705 C 129.345,453.705 26.294,350.659 26.294,224.004 26.294,97.288 129.345-5.751 256-5.751 382.656-5.751 485.702,97.288 485.702,224.004 485.702,350.659 382.656,453.705 256,453.705"  />
<glyph unicode="&#xe09a;" d="M 464.055,345.386 273.335,235.275 273.335,345.386 82.609,235.275 82.609,345.386 47.949,345.386 47.949,102.669 82.609,102.669 82.609,212.837 273.335,102.669 273.335,212.837 464.055,102.669 464.055,345.386 z"  />
<glyph unicode="&#xe09b;" d="M 411.678,231.253 C 412.023,228.54 412.25,225.792 412.25,222.963 412.25,184.034 380.561,152.32 341.602,152.32 L 150.878,152.32 150.878,216.162 51.362,135.735 150.878,55.36 150.878,114.935 341.602,114.935 C 401.19,114.935 449.643,163.413 449.643,222.963 449.643,234.999 447.612,246.861 443.622,258.3 L 411.678,231.253 zM 100.267,216.747 C 99.925,219.456 99.725,222.225 99.725,225.037 99.725,263.97 131.418,295.68 170.347,295.68 L 361.118,295.68 361.118,231.855 460.587,312.269 361.118,392.64 361.118,333.069 170.347,333.069 C 110.788,333.069 62.323,284.587 62.323,225.037 62.323,213.018 64.337,201.156 68.348,189.7 L 100.267,216.747 z"  />
<glyph unicode="&#xe09c;" d="M 418.935,251.678 C 410.944,272.606 398.451,291.836 383.633,308.211 368.047,324.907 349.815,338.133 329.387,347.575 311.735,355.785 292.322,360.589 272.853,362.56 L 272.853,433.118 131.84,338.56 272.853,244.297 272.853,313.011 C 284.587,311.253 297.225,307.947 307.891,302.976 322.291,296.303 335.573,286.694 346.402,275.119 357.547,262.639 366.268,249.024 371.861,234.441 377.801,218.901 380.527,202.505 379.93,185.655 379.349,168.909 375.514,152.695 368.486,137.6 361.707,123.038 352.371,110.029 340.535,99.038 338.185,96.853 335.893,94.771 333.491,92.851 323.307,84.693 312,78.187 300.002,73.6 284.425,67.682 268.053,64.909 251.2,65.493 234.347,66.133 218.133,69.918 203.093,76.962 188.535,83.733 175.518,93.171 164.373,105.067 162.295,107.255 160.32,109.602 158.293,112.055 150.242,122.078 143.735,133.389 139.093,145.493 133.171,161.067 130.453,177.442 130.987,194.295 131.575,211.11 135.467,227.247 142.455,242.355 L 97.707,262.711 C 87.893,241.515 82.509,218.859 81.651,195.362 80.853,171.789 84.693,148.8 93.069,126.985 99.469,110.080 108.535,94.349 119.945,80.162 L 120.427,79.518 C 122.987,76.373 125.705,73.28 128.482,70.293 143.893,53.76 162.133,40.585 182.613,31.040 203.84,21.227 226.505,15.787 250.027,14.989 273.493,14.187 296.482,18.027 318.345,26.402 335.253,32.853 351.040,41.971 365.227,53.389 368.593,56.055 371.819,58.829 374.976,61.815 391.548,77.278 404.757,95.467 414.289,115.895 424.111,137.122 429.504,159.787 430.31,183.305 431.13,206.805 427.294,229.82 418.935,251.678"  />
<glyph unicode="&#xe09d;" d="M 276.425,244.535 L 389.44,261.931 L 359.309,292.036 L 420.105,352.853 L 384.482,388.535 L 323.648,327.68 L 293.837,357.547 L 276.425,244.535 L 276.425,244.535 ZM 235.575,203.469 L 122.56,186.078 L 152.695,155.955 L 91.84,95.091 L 127.518,59.469 L 188.352,120.32 L 218.167,90.505 L 235.575,203.469 L 235.575,203.469 ZM 235.575,244.8 L 218.176,357.815 L 188.066,327.68 L 127.202,388.535 L 91.575,352.909 L 152.371,292.049 L 122.56,262.217 L 235.575,244.8 L 235.575,244.8 ZM 276.425,203.2 L 293.837,90.185 L 323.934,120.32 L 384.802,59.469 L 420.425,95.147 L 359.629,155.972 L 389.44,185.783 L 276.425,203.2 L 276.425,203.2 Z"  />
<glyph unicode="&#xe09e;" d="M 426.402,327.202 264.371,233.655 264.371,327.202 85.653,224 264.371,120.802 264.371,214.345 426.402,120.802 426.402,327.202 z"  />
<glyph unicode="&#xe09f;" d="M 60.8,302.455 C 85.867,302.396 109.675,296.7 133.547,285.069 154.505,274.773 175.305,259.793 195.469,240.533 197.333,242.56 199.202,244.587 201.011,246.669 209.011,255.825 217.493,264.747 226.295,273.28 206.080,291.063 185.6,304.956 163.733,315.686 131.947,331.409 96.789,339.703 61.764,339.703 58.385,339.703 55.066,339.567 51.814,339.413 L 45.282,339.11 45.282,301.764 52.501,302.204 C 55.266,302.34 58.018,302.455 60.8,302.455M 347.678,280.107 C 354.214,283.298 360.717,285.999 367.219,288.303 L 367.219,231.876 466.722,312.277 367.219,392.691 367.219,328.678 C 350.127,324.642 333.393,318.639 317.5,310.767 282.185,293.363 249.813,267.469 218.402,231.569 191.091,200.269 162.56,177.173 133.547,162.935 109.653,151.253 85.867,145.545 60.8,145.493 58.027,145.493 55.253,145.655 52.48,145.813 L 45.282,146.24 45.282,108.855 51.789,108.535 C 55.040,108.425 58.402,108.267 61.76,108.267 L 62.135,108.267 C 96.747,108.267 131.84,116.535 163.733,132.267 198.989,149.653 231.411,175.573 262.775,211.469 290.027,242.778 318.609,265.877 347.678,280.107M 367.253,159.68 C 360.742,161.988 354.24,164.689 347.703,167.885 328.567,177.284 309.389,190.694 290.722,207.808 287.202,204.122 283.678,200.32 280.213,196.309 273.869,189.094 267.255,181.948 260.322,175.053 278.827,159.445 297.6,147.046 317.53,137.229 333.436,129.382 350.17,123.383 367.253,119.343 L 367.253,55.36 466.722,135.74 367.253,216.162 367.253,159.68 z"  />
<glyph unicode="&#xe0a0;" d="M 434.722,45.278 L 434.722,402.722 L 77.278,402.722 L 77.278,45.278 L 434.722,45.278 L 434.722,45.278 Z"  />
<glyph unicode="&#xe0a1;" d="M 254.241,396.907 357.13,256.618 292.932,256.618 292.932,125.639 216.177,125.639 216.177,256.618 151.355,256.618 254.241,396.907 z M 44.693,88.935 44.693,51.093 467.307,51.093 467.246,88.935 44.693,88.935 z"  />
<glyph unicode="&#xe0b0;" d="M 131.453,306.998 C 108.548,306.998 89.968,325.576 89.968,348.507 89.968,371.442 108.548,389.991 131.453,389.991 154.393,389.991 172.967,371.442 172.967,348.507 172.967,325.576 154.393,306.998 131.453,306.998 M 301.905,240.255 C 312.266,260.273 318.216,282.931 318.216,306.998 318.216,387.202 253.216,452.267 172.967,452.267 92.768,452.267 27.678,387.202 27.678,306.998 27.678,226.734 92.768,161.728 172.967,161.728 197.018,161.728 219.721,167.683 239.629,178.044 L 318.216,99.453 359.78,99.453 359.78,57.959 401.274,57.959 401.274,16.46 422.050-4.322 484.267-4.322 484.267,57.959 301.905,240.255 z"  />
<glyph unicode="&#xe0b1;" d="M 341.728,353.615 363.352,361.363 C 345.889,404.898 312.060,440.003 269.416,459.2 L 261.569,437.436 C 297.841,420.665 326.64,390.7 341.728,353.615M 129.023,437.436 121.233,459.187 C 77.812,439.663 43.591,403.567 26.445,358.889 L 48.056,351.199 C 62.857,389.352 92.037,420.309 129.023,437.436M 389.577,116.732 389.577,214.181 359.067,214.181 359.067,116.732 263.034,116.732 263.034,86.239 359.067,86.239 359.067-11.2 389.577-11.2 389.577,86.239 485.555,86.239 485.555,116.732 389.577,116.732 zM 195.332,180.625 C 132.676,180.625 81.908,231.422 81.908,294.124 81.908,356.768 132.676,407.546 195.332,407.546 258.009,407.546 308.831,356.768 308.831,294.124 308.831,231.422 258.009,180.625 195.332,180.625 M 195.332,429.235 C 120.671,429.235 60.219,368.713 60.219,294.124 60.219,219.451 120.671,158.953 195.332,158.953 269.993,158.953 330.52,219.451 330.52,294.124 330.52,368.713 269.993,429.235 195.332,429.235M 197.605,385.635 183.257,385.635 178.31,293.313 179.592,283.643 248.666,222.171 259.577,233.379 202.46,294.562 197.605,385.635 z"  />
<glyph unicode="&#xe0b2;" d="M 256.566,60.078 C 176.607,60.078 111.817,124.929 111.817,204.887 111.817,284.842 176.607,349.693 256.566,349.693 336.52,349.693 401.371,284.842 401.371,204.887 401.371,124.929 336.52,60.078 256.566,60.078 M 256.566,377.329 C 161.318,377.329 84.121,300.131 84.121,204.887 84.121,109.614 161.318,32.418 256.566,32.418 351.805,32.418 429.006,109.614 429.006,204.887 429.006,300.131 351.805,377.329 256.566,377.329M 259.448,321.687 241.132,321.687 234.82,203.881 236.47,191.539 324.615,113.089 338.525,127.375 265.635,205.515 259.448,321.687 zM 351.058,415.611 341.122,387.845 C 387.335,366.426 424.114,328.198 443.354,280.831 L 470.989,290.732 C 448.682,346.31 405.486,391.138 351.058,415.611M 171.975,387.856 162.034,415.617 C 106.618,390.698 62.946,344.645 41.015,287.66 L 68.586,277.759 C 87.505,326.519 124.759,365.999 171.975,387.856"  />
<glyph unicode="&#xe0b3;" d="M 157.977,269.242 157.977,367.263 225.839,367.263 225.839,412.505 286.161,412.505 286.161,367.263 354.023,367.263 354.023,269.242 157.977,269.242 z M 316.323,397.425 316.323,442.667 195.677,442.667 195.677,397.425 127.815,397.425 127.815,5.333 384.185,5.333 384.185,397.425 316.323,397.425 z"  />
<glyph unicode="&#xe0b4;" d="M 249.26,76.672 C 330.603,76.672 396.588,142.621 396.588,224 C 396.588,300.343 338.572,363.068 264.285,370.603 C 261.979,370.817 259.604,370.817 257.268,370.967 C 254.591,371.112 251.966,371.401 249.26,371.401 L 249.249,371.401 C 168.067,371.401 102.223,305.557 102.223,224.365 C 102.223,143.177 168.067,77.368 249.249,77.368 L 249.26,77.368 L 249.26,76.672 L 249.26,76.672 Z M 435.775,224 L 492.638,169.965 L 417.957,146.005 L 445.771,72.668 L 368.055,83.452 L 361.317,5.312 L 296.018,48.736 L 256-18.718 L 215.989,48.736 L 150.683,5.312 L 143.874,83.452 L 66.227,72.668 L 94.041,146.005 L 19.366,169.965 L 76.223,224 L 19.366,278.035 L 94.041,302.012 L 66.227,375.383 L 143.874,364.519 L 150.683,442.669 L 215.989,399.285 L 256,466.722 L 296.018,399.285 L 361.317,442.669 L 368.055,364.519 L 445.771,375.383 L 417.957,302.012 L 492.638,278.035 L 435.775,224 L 435.775,224 Z"  />
<glyph unicode="&#xe0b5;" d="M 332.902,137.61 275.304,79.473 275.304,199.984 332.902,137.61 z M 275.304,368.519 332.902,310.387 275.304,262.418 275.304,368.519 z M 376.1,310.387 238.847,444.8 238.847,248.381 155.51,325.731 135.929,304.643 222.754,223.996 135.929,143.359 155.51,122.256 238.847,199.595 238.847,3.251 376.1,137.61 289.699,233.601 376.1,310.387 z"  />
<glyph unicode="&#xe0b6;" d="M 355.11,223.996 440.567,147.15 440.567,300.78 355.11,223.996 zM 331.847,137.61 274.248,79.473 274.248,199.984 331.847,137.61 z M 274.248,368.519 331.847,310.387 274.248,262.418 274.248,368.519 z M 375.050,310.387 237.787,444.8 237.787,248.381 154.455,325.731 134.87,304.643 221.695,223.996 134.87,143.359 154.455,122.256 237.787,199.595 237.787,3.251 375.050,137.61 288.649,233.601 375.050,310.387 zM 71.433,300.78 71.433,147.15 156.89,223.936 71.433,300.78 z"  />
<glyph unicode="&#xe0b7;" d="M 357.579,296.457 C 366.815,273.284 374.012,248.154 374.012,223.005 374.012,197.875 366.815,172.435 357.579,149.24 L 381.474,140.929 C 392.6,168.309 399.967,194.809 399.967,224.254 399.967,253.105 393.531,281.49 382.599,308.69 L 357.579,296.457 z M 427.027,373.722 403.448,359.905 C 421.966,317.287 431.778,270.198 431.778,223.314 431.778,176.43 421.966,129.361 403.448,86.729 L 427.027,72.911 C 447.091,119.925 457.657,171.87 457.657,223.314 457.657,274.874 447.091,326.718 427.027,373.722 M 192.048,261.876 192.048,366.656 248.869,309.255 192.048,261.876 z M 248.869,138.678 192.048,81.293 192.048,200.249 248.869,138.678 z M 155.977,441.92 155.977,248.053 73.776,324.423 54.397,303.57 140.158,223.945 54.397,144.364 73.776,123.55 155.977,199.874 155.977,6.029 291.501,138.678 206.236,233.441 291.501,309.255 155.977,441.92 z"  />
<glyph unicode="&#xe0b8;" d="M 308.951,125.857 293.63,171.211 218.19,171.211 202.909,125.857 159.086,125.857 234.773,336.124 277.537,336.124 352.941,125.857 308.951,125.857 z M 435.775,224 492.638,277.963 418.033,302.012 445.771,375.307 368.095,364.519 361.317,442.669 296.034,399.285 256.004,466.722 216.016,399.285 150.683,442.669 143.949,364.519 66.227,375.307 94.041,302.012 19.366,277.963 76.223,224 19.366,169.959 94.041,145.975 66.227,72.645 143.949,83.435 150.683,5.325 216.016,48.713 256.004-18.718 296.034,48.713 361.317,5.325 368.095,83.435 445.771,72.645 418.033,145.975 492.638,169.959 435.775,224 z M 255.472,281.586 229.343,204.228 282.51,204.228 256.375,281.586 255.472,281.586 z"  />
<glyph unicode="&#xe0b9;" d="M 256,343.367 C 321.815,343.367 375.367,289.832 375.367,224 C 375.367,158.231 321.815,104.706 256,104.706 C 190.185,104.706 136.631,158.231 136.631,224 C 136.631,289.832 190.185,343.367 256,343.367 Z M 256,76.672 C 337.413,76.672 403.326,142.661 403.326,224 C 403.326,305.406 337.413,371.372 256,371.372 C 174.661,371.372 108.672,305.406 108.672,224 C 108.672,142.661 174.661,76.672 256,76.672 Z M 435.775,224 L 492.638,169.965 L 417.957,145.988 L 445.771,72.691 L 368.124,83.481 L 361.317,5.325 L 296.034,48.713 L 256.023-18.718 L 216.016,48.713 L 150.683,5.325 L 143.874,83.481 L 66.227,72.691 L 94.041,145.988 L 19.366,169.965 L 76.223,224 L 19.366,278.035 L 94.041,302.039 L 66.227,375.37 L 143.874,364.569 L 150.683,442.669 L 216.016,399.291 L 256.023,466.722 L 296.034,399.291 L 361.317,442.669 L 368.124,364.569 L 445.771,375.37 L 417.957,302.039 L 492.638,278.035 L 435.775,224 L 435.775,224 Z"  />
<glyph unicode="&#xe0ba;" d="M 249.26,76.672 C 330.679,76.672 396.588,142.621 396.588,224 C 396.588,305.413 330.679,371.401 249.26,371.401 L 249.26,76.672 L 249.26,76.672 Z M 435.775,224 L 492.638,169.965 L 417.957,145.998 L 445.771,72.668 L 368.055,83.452 L 361.317,5.312 L 296.018,48.726 L 256.017-18.718 L 216.012,48.726 L 150.683,5.312 L 143.874,83.452 L 66.227,72.668 L 94.041,145.998 L 19.366,169.965 L 76.223,224 L 19.366,278.035 L 94.041,302.012 L 66.227,375.383 L 143.874,364.588 L 150.683,442.669 L 216.012,399.285 L 256.017,466.722 L 296.018,399.285 L 361.317,442.669 L 368.055,364.588 L 445.771,375.383 L 417.957,302.012 L 492.638,278.035 L 435.775,224 L 435.775,224 Z"  />
<glyph unicode="&#xe0bb;" d="M 465.547,90.279 C 470.217,96.422 469.835,105.16 464.214,110.797 463.573,111.433 462.821,112.004 462.090,112.505 L 462.065,112.631 370.791,177.895 370.661,177.771 C 364.588,182.28 356.005,181.839 350.433,176.268 349.933,175.766 349.432,175.14 348.996,174.513 L 348.996,174.453 C 348.68,174.138 348.43,173.762 348.24,173.386 342.106,164.619 342.166,163.491 337.217,155.85 330.141,144.842 322.065,127.837 314.044,108.502 288.37,112.461 250.227,134.712 208.451,176.453 166.678,218.229 144.448,256.373 140.5,281.986 159.855,290.003 176.824,298.144 187.912,305.159 195.489,310.109 196.55,310.044 205.383,316.181 205.759,316.433 206.135,316.683 206.511,316.933 206.511,316.933 206.572,316.933 206.572,316.999 207.138,317.434 207.764,317.875 208.33,318.436 213.836,323.948 214.278,332.53 209.833,338.663 L 209.833,338.794 144.633,430.042 144.508,430.042 C 143.942,430.793 143.38,431.485 142.754,432.172 137.178,437.747 128.349,438.184 122.277,433.485 78.556,403.487 39.040,370.609 44.175,331.654 49.747,289.877 99.54,197.812 164.675,132.698 229.809,67.583 321.935,17.75 363.711,12.244 402.666,7.043 435.564,46.554 465.547,90.279"  />
<glyph unicode="&#xe0bc;" d="M 333.645,204.718 C 333.645,161.739 298.814,126.863 255.855,126.863 212.876,126.863 178.005,161.739 178.005,204.718 178.005,247.661 212.876,282.506 255.855,282.506 298.814,282.506 333.645,247.661 333.645,204.718M 255.855,91.048 C 193.041,91.048 142.125,141.958 142.125,204.718 142.125,267.487 193.041,318.443 255.855,318.443 318.629,318.443 369.52,267.487 369.52,204.718 369.52,141.958 318.629,91.048 255.855,91.048 M 467.17,353.132 323.591,353.132 323.591,369.279 323.591,388.445 189.693,388.445 189.693,369.279 189.693,353.132 C 189.693,353.132 175.302,353.383 163.111,353.132 150.922,352.941 137.098,348.357 137.098,348.357 L 44.731,318.508 C 44.731,318.508 44.917,305.565 44.731,296.264 44.48,287.025 44.731,78.897 44.731,78.897 L 44.731,59.539 C 44.731,59.539 466.663,59.579 467.17,59.539 467.733,59.499 467.17,68.206 467.17,78.897 L 467.17,333.779 467.17,353.132 zM 129.81,362.995 L 129.81,371.093 L 129.81,377.059 L 62.199,377.059 L 62.199,371.093 L 62.199,340.093 L 129.81,362.995 L 129.81,362.995 Z"  />
<glyph unicode="&#xe0bd;" d="M 60.297,207.424 110.396,224.793 60.32,240.815 C 63.781,281.283 79.513,318.306 103.824,348.025 L 144.45,327.117 123.991,369.301 C 154.903,397.453 194.775,415.744 238.75,419.625 L 256,367.879 256,228.683 362.852,110.656 358.743,113.047 382.487,73.771 C 351.795,47.859 313.195,31.289 270.861,28.075 L 256,72.804 241.067,28.075 C 196.196,31.437 155.428,49.956 123.997,78.551 L 144.377,120.811 103.847,99.827 C 79.461,129.694 63.701,166.817 60.297,207.424 M 256,448 C 132.438,448 31.996,347.497 31.996,223.971 31.996,100.429 132.438,0 256,0 379.499,0 480,100.429 480,223.971 480,347.497 379.499,448 256,448"  />
<glyph unicode="&#xe0be;" d="M 210.832-0.158 299.366-0.158 299.366,84.141 210.832,84.141 210.832-0.158 z M 337.999,121.778 424.354,121.778 424.354,205.026 337.999,205.026 337.999,121.778 z M 210.832,121.778 299.366,121.778 299.366,204.773 210.832,204.773 210.832,121.778 z M 87.214,121.345 173.567,121.345 173.567,205.46 87.214,205.46 87.214,121.345 z M 337.999,242.789 424.786,242.789 424.786,326.033 337.999,326.033 337.999,242.789 z M 424.354,448.158 337.999,448.158 337.999,364.482 424.354,364.482 424.354,448.158 z M 210.832,242.789 299.366,242.789 299.366,326.033 210.832,326.033 210.832,242.789 z M 87.646,241.918 173.567,241.918 173.567,326.033 87.646,326.033 87.646,241.918 z M 212.016,364.605 299.366,364.605 299.366,448.158 212.016,448.158 212.016,364.605 z M 87.646,365.044 173.567,365.044 173.567,448.158 87.646,448.158 87.646,365.044 z"  />
<glyph unicode="&#xe0bf;" d="M 19.109,141.421 C 20.136,133.944 26.421,128.188 34.196,128.178 35.076,128.178 35.987,128.3 36.837,128.466 L 36.94,128.393 144.97,146.351 144.97,146.492 C 152.306,147.592 157.87,153.822 157.929,161.51 157.87,162.224 157.807,162.977 157.685,163.73 L 157.685,163.73 C 157.626,164.189 157.562,164.616 157.44,165.056 155.607,175.325 154.814,176.068 152.98,184.748 150.227,197.198 144.056,214.529 136.289,233.416 156.707,248.39 198.396,259.335 256.041,259.335 313.624,259.393 355.372,248.39 375.73,233.416 367.965,214.529 361.852,197.209 359.040,184.748 357.206,176.102 356.414,175.364 354.58,165.070 354.516,164.629 354.395,164.219 354.335,163.755 354.335,163.755 354.272,163.73 354.335,163.701 354.214,163.002 354.091,162.253 354.091,161.5 354.091,153.872 359.715,147.641 367.050,146.468 L 367.109,146.394 475.061,128.403 475.183,128.5 C 476.039,128.354 476.895,128.241 477.814,128.213 485.575,128.252 491.873,134.027 492.91,141.479 502.388,192.324 506.97,242.341 476.469,265.633 443.826,290.631 345.899,319.792 256.041,319.792 166.12,319.729 68.169,290.568 35.566,265.57 5.060,242.282 9.623,192.279 19.109,141.421"  />
<glyph unicode="&#xe0c0;" d="M 141.93,207.931 C 94.387,207.931 55.838,169.401 55.838,121.839 55.838,74.335 94.387,35.836 141.93,35.836 189.39,35.836 227.933,74.335 227.933,121.839 227.933,169.401 189.39,207.931 141.93,207.931 M 169.878,70.489 162.344,95.183 124.311,95.183 116.695,70.489 93.069,70.489 128.927,181.633 157.527,181.633 193.555,70.489 169.878,70.489 z M 148.47,145.317 C 147.862,147.378 147.204,149.636 146.534,152.147 145.886,154.662 145.216,157.133 144.608,159.642 144.029,162.15 143.578,164.327 143.328,166.102 143.115,164.979 142.876,163.669 142.544,162.15 142.218,160.626 141.84,159.071 141.402,157.384 L 140.123,152.272 138.805,147.456 137.69,143.422 C 137.364,142.267 137.155,140.46 136.986,139.915 L 129.955,115.725 156.919,115.725 149.838,139.915 C 149.506,140.826 149.043,143.253 148.47,145.317 M 379.561,276.304 429.663,412.164 288.93,412.164 250.907,214.554 321.231,214.554 284.383,49.867 307.746,49.867 456.158,276.304 379.561,276.304 z"  />
<glyph unicode="&#xe0c1;" d="M 207.109,38.342 146.339,99.071 85.66,38.342 49.92,73.963 110.722,134.729 49.92,195.458 85.66,231.037 146.339,170.315 207.067,231.037 242.72,195.379 182.029,134.729 242.72,73.963 207.109,38.342 z M 388.361,275.056 436.861,409.658 301.407,409.658 264.3,213.863 332.039,213.863 296.535,54.81 319.049,54.81 462.080,275.056 388.361,275.056 z"  />
<glyph unicode="&#xe0c2;" d="M 283.36,271.52 336.006,416 188.001,416 148,205.441 222.022,205.441 183.201,32 207.814,32 364,271.52 283.36,271.52 z"  />
<glyph unicode="&#xe0c3;" d="M 255.81,311.101 C 207.727,311.017 168.783,271.933 168.843,223.815 168.968,175.745 208.066,136.787 256.155,136.912 304.248,136.972 343.222,176.056 343.097,224.13 343.032,272.273 303.944,311.207 255.81,311.101M 256.249,80.722 C 177.27,80.563 112.903,144.714 112.718,223.694 112.593,302.735 176.71,367.102 255.716,367.291 334.73,367.417 399.162,303.294 399.287,224.254 399.472,145.274 335.226,80.863 256.249,80.722 M 475.456,236.805 423.446,236.741 C 417.203,319.527 350.899,385.521 268.087,391.51 L 267.987,443.52 243.154,443.46 243.248,391.451 C 160.477,385.147 94.422,318.904 88.494,236.056 L 36.484,235.927 36.549,211.143 88.554,211.268 C 94.797,128.481 161.101,62.452 243.913,56.514 L 243.993,4.429 268.827,4.489 268.712,56.554 C 351.523,62.807 417.517,129.105 423.506,211.892 L 475.516,212.017 475.456,236.805 z"  />
<glyph unicode="&#xe0c4;" d="M 324.177,274.265 325.676,275.785 307.605,293.955 255.94,242.11 205.744,292.457 204.245,293.955 186.139,275.785 237.834,223.974 187.638,173.623 186.139,172.12 204.245,153.954 255.94,205.839 306.086,155.517 307.605,153.954 325.7,172.12 274.011,223.974 324.177,274.265 zM 256.249,80.722 C 177.27,80.563 112.903,144.714 112.718,223.694 112.528,302.735 176.71,367.102 255.705,367.291 334.73,367.417 399.162,303.294 399.287,224.254 399.472,145.274 335.226,80.863 256.249,80.722 M 475.456,236.805 423.446,236.741 C 417.203,319.527 350.899,385.521 268.087,391.51 L 267.992,443.52 243.154,443.46 243.248,391.451 C 160.477,385.147 94.422,318.904 88.494,236.056 L 36.484,235.927 36.549,211.143 88.554,211.268 C 94.797,128.481 161.101,62.452 243.907,56.514 L 243.993,4.429 268.827,4.489 268.712,56.554 C 351.523,62.807 417.517,129.105 423.506,211.892 L 475.516,212.017 475.456,236.805 z"  />
<glyph unicode="&#xe0c5;" d="M 256.249,80.722 C 177.27,80.563 112.838,144.714 112.718,223.694 112.528,302.735 176.71,367.102 255.7,367.291 334.73,367.417 399.162,303.294 399.287,224.254 399.472,145.274 335.226,80.863 256.249,80.722 M 475.456,236.805 423.446,236.741 C 417.203,319.527 350.899,385.521 268.082,391.51 L 267.983,443.52 243.154,443.46 243.239,391.451 C 160.477,385.147 94.422,318.904 88.494,236.056 L 36.484,235.927 36.549,211.143 88.554,211.268 C 94.797,128.481 161.101,62.452 243.907,56.514 L 243.993,4.429 268.827,4.489 268.697,56.554 C 351.523,62.807 417.517,129.105 423.506,211.892 L 475.516,212.017 475.456,236.805 z"  />
<glyph unicode="&#xe0c6;" d="M 254.81,160.178 C 292.288,160.178 322.598,180.156 322.598,204.819 L 322.598,386.82 C 322.598,411.479 292.288,431.467 254.81,431.467 217.361,431.467 187.016,411.479 187.016,386.82 L 187.016,204.819 C 187.016,180.156 217.361,160.178 254.81,160.178 M 379.604,253.195 350.723,253.069 350.723,210.178 C 350.723,156.615 307.589,131.088 254.556,131.088 201.489,131.088 158.321,156.615 158.321,210.178 L 158.321,253.069 130.447,253.195 C 130.447,253.195 127.169,247.959 127.169,241.839 127.169,235.725 130.447,232.824 130.447,232.824 L 141.738,232.824 141.738,210.207 C 141.738,163.613 167.34,132.542 220.897,118.971 L 220.897,97.307 C 220.897,97.307 227.556,93.963 243.488,92.828 L 243.488,69.748 C 186.89,67.478 153.089,58.522 153.089,47.741 L 153.089,39.165 C 153.089,26.679 198.614,16.585 254.81,16.585 310.975,16.585 356.524,26.679 356.524,39.165 L 356.524,47.741 C 356.524,58.522 322.663,67.478 266.105,69.748 L 266.105,92.828 C 282.092,93.963 288.716,97.307 288.716,97.307 L 288.716,119.188 C 342.146,133.156 367.815,165.283 367.815,210.207 L 367.815,232.824 379.604,232.824 C 379.604,232.824 384.776,235.785 384.776,242.409 384.776,248.967 379.604,253.195 379.604,253.195"  />
<glyph unicode="&#xe0c7;" d="M 381.493,253.195 352.606,253.034 352.606,210.178 C 352.606,156.586 309.478,131.108 256.44,131.108 233.426,131.108 212.237,135.901 195.654,145.738 L 218.104,168.123 C 229.072,163.143 242.315,160.178 256.698,160.178 294.156,160.178 324.501,180.17 324.501,204.819 L 324.501,274.425 412.060,361.973 391.77,382.218 324.501,314.955 324.501,386.82 C 324.501,411.479 294.156,431.467 256.698,431.467 219.239,431.467 188.904,411.479 188.904,386.82 L 188.904,204.819 C 188.904,198.044 191.235,191.658 195.336,185.907 L 174.274,164.843 C 165.385,176.76 160.214,191.758 160.214,210.178 L 160.214,253.034 132.336,253.195 C 132.336,253.195 129.057,247.964 129.057,241.854 129.057,235.74 132.336,232.829 132.336,232.829 L 143.626,232.829 143.626,210.207 C 143.626,187.354 149.807,168.188 162.484,153.054 L 99.927,90.492 120.167,70.252 184.43,134.514 C 195.084,128.017 207.822,122.784 222.765,119.001 L 222.765,97.307 C 222.765,97.307 229.451,93.963 245.347,92.828 L 245.347,69.748 C 188.778,67.478 154.977,58.522 154.977,47.741 L 154.977,39.165 C 154.977,26.679 200.508,16.585 256.698,16.585 312.821,16.585 358.398,26.679 358.398,39.165 L 358.398,47.741 C 358.398,58.522 324.566,67.478 267.983,69.748 L 267.983,92.828 C 283.935,93.963 290.559,97.307 290.559,97.307 L 290.559,119.188 C 344.005,133.187 369.708,165.283 369.708,210.207 L 369.708,232.829 381.493,232.829 C 381.493,232.829 386.654,235.76 386.654,242.384 386.654,248.963 381.493,253.195 381.493,253.195"  />
<glyph unicode="&#xe0c8;" d="M 28.907,34.22 107.566,34.22 107.566,156.271 28.907,156.271 28.907,34.22 zM 154.063,34.22 232.781,34.22 232.781,242.127 154.063,242.127 154.063,34.22 zM 279.219,34.22 357.937,34.22 357.937,327.924 279.219,327.924 279.219,34.22 zM 404.434,34.22 483.093,34.22 483.093,413.78 404.434,413.78 404.434,34.22 z"  />
<glyph unicode="&#xe0c9;" d="M 81.078,253.367 126.707,197.735 C 161.978,226.466 206.974,243.752 255.995,243.752 305.016,243.752 350.076,226.466 385.357,197.735 L 430.911,253.367 C 383.192,292.218 322.287,315.57 255.995,315.57 189.703,315.57 128.787,292.218 81.078,253.367 M 137.636,184.352 185.746,125.675 C 204.745,142.51 229.197,152.72 255.995,152.72 282.793,152.72 307.303,142.51 326.308,125.675 L 374.399,184.352 C 342.089,210.685 300.931,226.525 255.995,226.525 211.123,226.525 169.9,210.685 137.636,184.352 M 196.511,112.612 255.995,39.947 315.539,112.553 C 299.505,126.853 278.712,135.514 255.995,135.514 233.277,135.514 212.544,126.853 196.511,112.612 M 24.704,322.254 70.328,266.603 C 120.929,307.84 185.558,332.653 255.995,332.653 326.368,332.653 391.050,307.84 441.745,266.544 L 487.36,322.254 C 353.047,431.626 159.003,431.626 24.704,322.254"  />
<glyph unicode="&#xe0ca;" d="M 372.018,108.549 372.018,192.047 345.9,192.047 345.9,108.549 263.586,108.549 263.586,82.416 345.9,82.416 345.9-1.067 372.018-1.067 372.018,82.416 454.272,82.416 454.272,108.549 372.018,108.549 zM 275.897,376.332 C 275.897,392.378 288.923,405.4 305.003,405.4 321.060,405.4 334.061,392.378 334.061,376.332 334.061,360.246 321.060,347.239 305.003,347.239 288.923,347.239 275.897,360.246 275.897,376.332 M 57.724,172.713 57.724,129.062 101.37,129.062 115.919,143.611 115.919,172.713 145.021,172.713 145.021,201.811 174.114,201.811 229.161,256.892 C 243.172,249.62 259.015,245.457 275.897,245.457 332.106,245.457 377.673,291.028 377.673,347.239 377.673,403.44 332.106,449.011 275.897,449.011 219.685,449.011 174.114,403.44 174.114,347.239 174.114,330.358 178.282,314.506 185.495,300.479 L 57.724,172.713 z"  />
<glyph unicode="&#xe0cb;" d="M 360.595,222.174 360.595,332.107 C 360.595,383.397 324.686,435.255 256.003,435.255 187.299,435.255 151.35,383.397 151.35,332.107 L 151.35,265.143 195.41,265.143 195.41,332.107 C 195.41,360.583 214.392,391.257 256.003,391.257 297.614,391.257 316.57,360.583 316.57,332.107 L 316.57,222.174 99.618,222.174 99.618,12.8 412.352,12.8 412.352,222.174 360.595,222.174 z"  />
<glyph unicode="&#xe0cc;" d="M 285.667,344.021 278.773,323.951 C 296.232,316.444 313.644,306.792 327.164,293.266 340.694,279.736 350.58,262.142 358.051,244.679 L 375.384,253.035 C 366.657,273.784 356.34,292.046 340.482,307.895 324.962,323.435 306.183,335.254 285.667,344.021 M 415.625,236.519 435.751,241.772 C 421.258,277.899 398.986,311.54 371.273,339.258 343.484,367.032 309.879,389.258 273.757,403.756 L 268.513,383.619 C 301.425,370.651 332.054,350.566 357.292,325.323 382.535,300.075 402.656,269.42 415.625,236.519 M 452.707,117.059 C 452.136,117.693 451.376,118.198 450.682,118.704 L 450.682,118.765 364.44,180.458 364.313,180.393 C 358.618,184.634 350.454,184.194 345.219,178.94 344.739,178.434 344.278,177.867 343.859,177.229 343.59,176.916 343.327,176.597 343.109,176.217 337.338,167.93 337.385,166.858 332.702,159.64 326.061,149.268 318.397,133.196 310.815,114.908 286.589,118.639 250.538,139.65 211.066,179.127 171.65,218.549 150.639,254.614 146.908,278.851 165.196,286.428 181.202,294.101 191.705,300.707 198.791,305.405 199.87,305.354 208.217,311.115 208.536,311.377 208.849,311.595 209.229,311.848 L 209.295,311.909 C 209.801,312.299 210.434,312.729 210.94,313.261 216.194,318.489 216.569,326.589 212.393,332.395 L 212.393,332.495 150.831,418.744 150.639,418.744 C 150.137,419.442 149.631,420.136 148.998,420.768 143.744,426.018 135.458,426.402 129.632,421.973 88.379,393.657 50.987,362.563 55.922,325.758 61.11,286.271 108.185,199.314 169.747,137.747 231.283,76.246 318.301,29.11 357.733,23.988 394.558,18.987 425.622,56.379 453.973,97.698 458.402,103.459 458.018,111.744 452.707,117.059"  />
<glyph unicode="&#xe0cd;" d="M 345.465,194.486 345.465,229.396 C 345.465,276.859 306.781,315.527 259.33,315.527 211.862,315.527 173.111,276.859 173.111,229.396 L 173.111,194.486 134.149,194.486 134.149,56.298 384.512,56.298 384.512,194.486 345.465,194.486 z M 206.383,229.396 C 206.383,258.611 230.121,282.324 259.33,282.324 288.51,282.324 312.252,258.611 312.252,229.396 L 312.252,194.486 206.383,194.486 206.383,229.396 zM 485.653,107.090 L 485.653,391.753 L 26.347,391.753 L 26.347,107.090 L 101.693,107.090 L 101.693,135.566 L 54.81,135.566 L 54.81,363.29 L 457.171,363.29 L 457.171,135.566 L 416.565,135.566 L 416.565,107.090 L 485.653,107.090 L 485.653,107.090 Z"  />
<glyph unicode="&#xe0ce;" d="M 271.013,222.155 271.013,260.236 C 271.013,307.699 232.327,346.295 184.869,346.295 137.33,346.295 98.659,307.699 98.659,260.236 L 98.659,222.155 59.694,222.155 59.694,91.727 310.057,91.727 310.057,222.155 271.013,222.155 z M 131.931,260.236 C 131.931,289.386 155.667,313.099 184.869,313.099 214.061,313.099 237.793,289.386 237.793,260.236 L 237.793,222.155 131.931,222.155 131.931,260.236 zM 172.745-5.653 L 452.31-5.653 L 452.31,453.653 L 172.745,453.653 L 172.745,378.384 L 200.705,378.384 L 200.705,425.184 L 424.354,425.184 L 424.354,22.829 L 200.705,22.829 L 200.705,58.023 L 172.745,58.023 L 172.745-5.653 L 172.745-5.653 Z"  />
<glyph unicode="&#xe0cf;" d="M 204.942,436.581 42.295,273.874 304.8,11.364 467.447,174.075 204.942,436.581 z M 74.847,273.874 204.942,404.022 434.954,174.075 304.8,43.916 74.847,273.874 zM 293.194,424.914 289.476,420.276 349.843,352.091 359.247,392.286 C 411.184,370.387 447.751,318.911 447.751,259.070 L 469.705,259.070 C 469.705,350.711 395.251,425.224 303.727,425.481 L 303.35,425.601 303.29,425.481 293.194,424.914 zM 230.534,16.131 234.297,20.773 173.935,88.953 164.546,48.743 C 112.544,70.647 75.976,122.077 75.976,181.979 L 54.083,181.979 C 54.083,90.339 128.541,15.81 219.99,15.564 L 220.366,15.449 220.503,15.564 230.534,16.131 z"  />
<glyph unicode="&#xe0d0;" d="M 391.049,327.857 L 391.049,411.051 L 370.301,411.051 L 370.301,327.857 L 391.049,327.857 L 391.049,327.857 Z M 349.489,327.857 L 349.489,431.794 L 328.745,431.794 L 328.745,327.857 L 349.489,327.857 L 349.489,327.857 Z M 307.933,327.857 L 307.933,411.051 L 287.114,411.051 L 287.114,327.857 L 307.933,327.857 L 307.933,327.857 Z M 224.811,327.857 L 224.811,411.051 L 204.073,411.051 L 204.073,327.857 L 224.811,327.857 L 224.811,327.857 Z M 183.255,327.857 L 183.255,411.051 L 162.511,411.051 L 162.511,327.857 L 183.255,327.857 L 183.255,327.857 Z M 245.629,431.794 L 245.629,327.857 L 266.371,327.857 L 266.371,431.794 L 245.629,431.794 L 245.629,431.794 Z M 389.047,452.535 C 401.639,452.535 411.861,442.385 411.861,429.715 L 411.861,15.393 C 411.861,4.359 402.896-4.531 391.861-4.531 L 120.731-4.531 C 109.697-4.531 100.807,4.359 100.807,15.393 L 100.807,158.218 L 116.365,171.326 C 121.249,175.177 124.139,177.625 124.139,187.332 L 124.139,200.957 C 124.139,204.513 122.214,213.556 111.469,213.556 C 111.469,213.556 100.139,211.328 100.139,220.668 L 100.139,255.409 L 141.621,296.817 L 141.621,429.79 C 141.621,442.385 151.845,452.535 164.515,452.535 L 389.047,452.535 L 389.047,452.535 Z"  />
<glyph unicode="&#xe0d1;" d="M 194.388,312.336 C 194.388,341.294 213.665,372.424 255.985,372.424 298.32,372.424 317.561,341.294 317.561,312.336 L 317.561,243.687 194.388,243.687 194.388,312.336 z M 362.366,243.687 362.366,312.336 C 362.366,364.447 325.804,417.229 255.985,417.229 186.134,417.229 149.598,364.447 149.598,312.336 L 149.598,243.687 96.976,243.687 96.976,30.771 414.973,30.771 414.973,243.687 362.366,243.687 z"  />
<glyph unicode="&#xe0d2;" d="M 32,321.067 480,321.067 480,425.6 32,425.6 32,321.067 z M 61.867,380.8 152.811,380.8 152.811,350.713 61.867,350.713 61.867,380.8 z M 32,171.733 480,171.733 480,276.267 32,276.267 32,171.733 z M 61.867,231.467 152.811,231.467 152.589,201.6 61.639,201.6 61.867,231.467 z M 32,22.4 480,22.4 480,126.933 32,126.933 32,22.4 z M 61.867,82.133 152.811,82.133 152.811,52.267 61.867,52.267 61.867,82.133 z"  />
<glyph unicode="&#xe0d3;" d="M 288.563,80.392 288.324,119.405 C 417.718,120.145 485.225,154.543 485.225,179.911 485.225,188.448 475.589,198.448 457.784,207.956 L 457.476,222.29 C 488.029,212.226 511.202,198.322 511.202,179.911 511.202,124.351 413.269,81.055 288.563,80.392 M 27.082,179.116 C 27.082,161.066 78.549,130.698 170.569,119.405 L 170.75,153.748 249.483,98.432 170.141,50.078 170.443,85.26 C 82.573,95.754 0.802,122.278 0.802,179.116 0.802,198.142 26.043,217.348 65.924,226.986 L 66.294,212.898 C 40.986,201.859 27.082,189.482 27.082,179.116M 336.736,279.059 C 336.736,237.842 303.32,204.42 262.097,204.42 220.875,204.42 187.458,237.842 187.458,279.059 187.458,320.281 220.875,353.698 262.097,353.698 303.32,353.698 336.736,320.281 336.736,279.059 M 398.877,379.372 306.559,379.372 306.794,397.969 217.402,397.911 217.094,379.314 201.542,379.372 124.957,349.185 124.957,190.643 399.18,190.643 C 399.482,190.579 398.877,379.372 398.877,379.372 M 313.931,279.059 C 313.931,307.656 290.69,330.891 262.097,330.891 233.5,330.891 210.265,307.656 210.265,279.059 210.265,250.462 233.5,227.231 262.097,227.231 290.69,227.231 313.931,250.462 313.931,279.059 M 179.775,382.607 179.775,391.872 137.089,391.872 137.089,367.479 179.775,382.607 z"  />
</font>
</defs>
</svg>
